<?xml version="1.0" encoding="UTF-8"?>
<svg xmlns="http://www.w3.org/2000/svg" viewBox="0 0 143.93 143.78">
  <defs>
    <style>
      .cls-1, .cls-2 {
        fill: #fff;
      }

      .cls-3 {
        stroke: #6d6e71;
        stroke-miterlimit: 10;
        stroke-width: 2px;
      }

      .cls-3, .cls-4 {
        fill: #6d6e71;
      }

      .cls-2 {
        font-family: MYuenHK-Xbold-B5pc-H, MYuenHK;
        font-size: 27.35px;
        font-weight: 700;
      }
    </style>
  </defs>
  <g id="Layer_1">
    <rect class="cls-3" x="1.1" y="1.02" width="141.73" height="141.73" rx="22.68" ry="22.68"/>
  </g>
  <g id="icon">
    <g>
      <rect class="cls-1" x="19.62" y="20.17" width="104.34" height="104.34" rx="7.06" ry="7.06"/>
      <rect class="cls-4" x="31.24" y="30.86" width="81.1" height="38.41" rx="4.71" ry="4.71"/>
      <g>
        <g>
          <rect class="cls-4" x="31.24" y="80.33" width="8.22" height="8.22"/>
          <rect class="cls-4" x="43.18" y="80.33" width="8.22" height="8.22"/>
          <rect class="cls-4" x="55.11" y="80.33" width="8.22" height="8.22"/>
        </g>
        <g>
          <rect class="cls-4" x="31.24" y="92.27" width="8.22" height="8.22"/>
          <rect class="cls-4" x="43.18" y="92.27" width="8.22" height="8.22"/>
          <rect class="cls-4" x="55.11" y="92.27" width="8.22" height="8.22"/>
        </g>
        <g>
          <rect class="cls-4" x="31.24" y="104.21" width="8.22" height="8.22"/>
          <rect class="cls-4" x="43.18" y="104.21" width="8.22" height="8.22"/>
          <rect class="cls-4" x="55.11" y="104.21" width="8.22" height="8.22"/>
        </g>
      </g>
      <g>
        <rect class="cls-4" x="74.57" y="87.63" width="37.77" height="5.49" rx="2.75" ry="2.75"/>
        <rect class="cls-4" x="74.57" y="99.64" width="37.77" height="5.49" rx="2.75" ry="2.75"/>
      </g>
      <text class="cls-2" transform="translate(41.58 61.04)"><tspan x="0" y="0">ATM</tspan></text>
    </g>
  </g>
</svg>