<?xml version="1.0" encoding="UTF-8"?>
<svg xmlns="http://www.w3.org/2000/svg" viewBox="0 0 143.42 143.78">
  <defs>
    <style>
      .cls-1 {
        fill: #fff;
      }

      .cls-2 {
        stroke: #6d6e71;
        stroke-miterlimit: 10;
        stroke-width: 2px;
      }

      .cls-2, .cls-3 {
        fill: #6d6e71;
      }
    </style>
  </defs>
  <g id="Layer_1">
    <rect class="cls-2" x=".84" y="1.02" width="141.73" height="141.73" rx="22.68" ry="22.68"/>
  </g>
  <g id="icon">
    <g>
      <rect class="cls-1" x="31.33" y="66.25" width="69.99" height="44.25" rx="3.21" ry="3.21"/>
      <path class="cls-1" d="M116.13,107.81l-22.38-17.04c-1.28-.97-1.28-2.9,0-3.87l22.38-17.04c1.6-1.22,3.91-.08,3.91,1.94v34.09c0,2.01-2.31,3.16-3.91,1.94Z"/>
      <path class="cls-1" d="M48.23,35.64c-7.88,0-14.26,6.39-14.26,14.26s6.39,14.26,14.26,14.26,14.26-6.39,14.26-14.26-6.39-14.26-14.26-14.26ZM48.23,55.72c-3.21,0-5.81-2.6-5.81-5.81s2.6-5.81,5.81-5.81,5.81,2.6,5.81,5.81-2.6,5.81-5.81,5.81Z"/>
      <path class="cls-1" d="M82.3,26.12c-10.51,0-19.03,8.52-19.03,19.03s8.52,19.03,19.03,19.03,19.03-8.52,19.03-19.03-8.52-19.03-19.03-19.03ZM82.3,52.9c-4.28,0-7.75-3.47-7.75-7.75s3.47-7.75,7.75-7.75,7.75,3.47,7.75,7.75-3.47,7.75-7.75,7.75Z"/>
      <path class="cls-1" d="M40.7,113.39v4.79c0,1.25.95,2.27,2.13,2.27h47c1.18,0,2.13-1.02,2.13-2.27v-4.79h-51.26Z"/>
    </g>
    <path class="cls-3" d="M59.03,96.98v-17.22c0-.85.89-1.4,1.65-1.02l17.22,8.61c.84.42.84,1.62,0,2.04l-17.22,8.61c-.76.38-1.65-.17-1.65-1.02Z"/>
  </g>
</svg>