<?xml version="1.0" encoding="UTF-8"?>
<svg xmlns="http://www.w3.org/2000/svg" viewBox="0 0 143.93 143.89">
  <defs>
    <style>
      .cls-1 {
        fill: #fff;
      }

      .cls-2 {
        fill: none;
        stroke: #fff;
        stroke-width: 5px;
      }

      .cls-2, .cls-3 {
        stroke-miterlimit: 10;
      }

      .cls-3 {
        stroke: #6d6e71;
        stroke-width: 2px;
      }

      .cls-3, .cls-4 {
        fill: #6d6e71;
      }
    </style>
  </defs>
  <g id="Layer_1">
    <rect class="cls-3" x="1.1" y="1.08" width="141.73" height="141.73" rx="22.68" ry="22.68"/>
  </g>
  <g id="icon">
    <g>
      <path class="cls-1" d="M114.37,116.74v-49.28c.44.27.87.53,1.29.78.33.2.66.39.98.59l1.56.96c.92.56,1.85,1.13,2.77,1.7.41.26.81.33,1.19.21.38-.12.68-.41.91-.88.27-.55.55-1.1.83-1.65.22-.44.44-.88.66-1.32.12-.24.23-.49.34-.74l.18-.4c.35-.76.15-1.58-.5-2.04-.13-.09-.27-.18-.41-.26l-1.89-1.15c-1.24-.76-2.49-1.51-3.73-2.27-1.4-.86-2.8-1.73-4.19-2.6-1.51-.94-3.02-1.88-4.54-2.81-.7-.43-1.4-.85-2.11-1.27-.8-.48-1.6-.96-2.4-1.45-1.12-.69-2.23-1.4-3.34-2.1-1.35-.85-2.7-1.71-4.06-2.54-.95-.58-1.9-1.15-2.85-1.72-1.3-.77-2.65-1.57-3.94-2.4-.66-.42-1.33-.82-1.99-1.22-.43-.26-.86-.52-1.29-.79l-12.56-7.76c-.82-.5-1.64-1-2.45-1.51-.68-.43-1.38-.43-2.06,0-.72.46-1.46.91-2.19,1.35l-11.22,6.89c-1.95,1.2-3.91,2.41-5.86,3.61-.58.36-1.16.71-1.74,1.06-.73.44-1.47.89-2.2,1.34-1.05.65-2.11,1.31-3.16,1.97-1.2.75-2.4,1.5-3.61,2.24-2.2,1.36-4.4,2.71-6.61,4.04-1.06.64-2.11,1.29-3.16,1.94-1.47.91-2.95,1.83-4.44,2.7-1.78,1.05-3.56,2.17-5.28,3.25-.67.42-1.33.84-2,1.26-1.04.65-1.22,1.33-.67,2.5.45.95.91,1.88,1.37,2.82l.41.83c.05.11.12.21.21.34.37.76,1.11,1,1.8.6.06-.04.13-.07.19-.1.11-.06.22-.12.33-.18l6.28-3.87v49.41s85.15-.09,85.15-.09Z"/>
      <g>
        <circle class="cls-4" cx="71.79" cy="62.04" r="7.31"/>
        <path class="cls-4" d="M71.79,70.43c-9.17,0-11.8,5.28-11.8,11.8v15.64h23.6v-15.64c0-6.52-2.62-11.8-11.8-11.8Z"/>
      </g>
      <g>
        <circle class="cls-2" cx="49.52" cy="72.18" r="7.31"/>
        <path class="cls-2" d="M49.52,80.57c-9.17,0-11.8,5.28-11.8,11.8v15.64h23.6v-15.64c0-6.52-2.62-11.8-11.8-11.8Z"/>
      </g>
      <g>
        <circle class="cls-4" cx="49.52" cy="72.18" r="7.31"/>
        <path class="cls-4" d="M49.52,80.57c-9.17,0-11.8,5.28-11.8,11.8v15.64h23.6v-15.64c0-6.52-2.62-11.8-11.8-11.8Z"/>
      </g>
      <g>
        <circle class="cls-2" cx="94.05" cy="72.18" r="7.31"/>
        <path class="cls-2" d="M94.05,80.57c-9.17,0-11.8,5.28-11.8,11.8v15.64h23.6v-15.64c0-6.52-2.62-11.8-11.8-11.8Z"/>
      </g>
      <g>
        <circle class="cls-4" cx="94.05" cy="72.18" r="7.31"/>
        <path class="cls-4" d="M94.05,80.57c-9.17,0-11.8,5.28-11.8,11.8v15.64h23.6v-15.64c0-6.52-2.62-11.8-11.8-11.8Z"/>
      </g>
    </g>
  </g>
</svg>