<?xml version="1.0" encoding="UTF-8"?>
<svg xmlns="http://www.w3.org/2000/svg" viewBox="0 0 143.93 143.74">
  <defs>
    <style>
      .cls-1, .cls-2 {
        fill: #fff;
      }

      .cls-3 {
        fill: none;
      }

      .cls-3, .cls-4, .cls-2 {
        stroke: #6d6e71;
        stroke-miterlimit: 10;
      }

      .cls-4 {
        stroke-width: 2px;
      }

      .cls-4, .cls-5 {
        fill: #6d6e71;
      }

      .cls-2 {
        stroke-width: 4px;
      }
    </style>
  </defs>
  <g id="Layer_2">
    <rect class="cls-4" x="1.1" y="1" width="141.73" height="141.73" rx="22.68" ry="22.68"/>
  </g>
  <g id="icon">
    <g>
      <polygon class="cls-1" points="104.99 27.3 38.55 27.3 17.42 27.3 17.42 96.26 24.62 96.26 36.46 96.26 38.55 96.26 45.75 96.26 56.45 96.26 87.09 96.26 97.79 96.26 104.99 96.26 107.08 96.26 118.92 96.26 126.12 96.26 126.12 27.3 104.99 27.3"/>
      <rect class="cls-3" x="29.01" y="35.78" width="85.53" height="32.61"/>
      <rect class="cls-5" x="34.35" y="40.86" width="74.84" height="22.46"/>
      <path class="cls-2" d="M126.12,106.59c-.26,0-.52.01-.78,0-4.56-.21-8.96-1.76-12.22-5.02-1.11-1.12-1.99-2.37-2.6-3.82-.3-.71-.55-1.43-.77-2.17-.1-.35-.1-.73-.13-1.1.97-.58,1.62-1.63,1.62-2.84,0-1.82-1.48-3.3-3.3-3.3s-3.3,1.48-3.3,3.3c0,1.2.65,2.26,1.61,2.83,0,.03,0,.07,0,.11-.01.9-.44,1.94-.79,2.77-.36.86-.81,1.67-1.34,2.43-1.04,1.49-2.37,2.77-3.88,3.79-2.41,1.64-7.61,3.19-10.39,3.19s-7.98-1.56-10.39-3.19c-1.5-1.02-2.84-2.3-3.88-3.79-.53-.76-.98-1.57-1.34-2.43-.34-.82-.77-1.87-.79-2.77,0-.04,0-.07,0-.11.96-.58,1.61-1.63,1.61-2.83,0-1.82-1.48-3.3-3.3-3.3s-3.3,1.48-3.3,3.3c0,1.21.65,2.27,1.62,2.84-.03.37-.03.75-.13,1.1-.22.73-.47,1.46-.77,2.17-.61,1.44-1.49,2.7-2.6,3.82-3.26,3.26-7.66,4.82-12.22,5.02-2.7.12-5.44-.27-7.95-1.28-3.19-1.29-5.98-3.59-7.72-6.57-.76-1.3-1.09-2.67-1.44-4.12-.01-.04-.01-.08-.01-.11.98-.57,1.65-1.64,1.65-2.86,0-1.82-1.48-3.3-3.3-3.3s-3.3,1.48-3.3,3.3c0,1.22.66,2.29,1.65,2.86,0,.08-.01.18-.04.31-.14.63-.28,1.26-.48,1.88-.27.84-.6,1.64-1.07,2.38-.62.98-1.3,1.91-2.15,2.73-3.3,3.15-7.8,4.77-12.34,4.87-.14,0-.31.02-.38.15-.03.06-.03.13-.03.2,0,.75,0,1.5,0,2.25,0,.42.09.58.53.56,3.12-.15,6.35-.77,9.18-2.14,2.01-.97,3.87-2.28,5.44-3.87.37-.38.71-.79,1.08-1.17.04-.04.07-.06.1-.07v14.35h-2.9v3.55h9.54v-3.55h-3.05v-14.49s.04.04.06.07c.19.25.37.51.6.74,1.67,1.61,3.37,3.04,5.45,4.12,2.03,1.06,4.22,1.8,6.48,2.17,4.47.74,9.2.09,13.3-1.83.64-.3,1.23-.69,1.87-1.01,1.78-1.06,3.35-2.36,4.65-3.97.08-.1.15-.27.27-.29v14.5h-2.97v3.55h9.54v-3.55h-2.97v-14.44c.05.08.08.19.14.25,1.55,1.71,3.24,3.24,5.3,4.32,1.63.85,3.34,1.56,5.12,2.03,1.82.49,4.03.68,5.67.68s3.85-.19,5.67-.68c1.78-.48,3.49-1.18,5.12-2.03,2.06-1.08,3.76-2.6,5.3-4.32.06-.06.09-.17.14-.25v14.44h-2.97v3.55h9.54v-3.55h-2.97v-14.5c.12.02.19.2.27.29,1.3,1.62,2.88,2.91,4.65,3.97.63.32,1.22.71,1.87,1.01,3.01,1.41,6.35,2.12,9.67,2.12v-3.23Z"/>
      <path class="cls-1" d="M126.12,106.59c-.26,0-.52.01-.78,0-4.56-.21-8.96-1.76-12.22-5.02-1.11-1.12-1.99-2.37-2.6-3.82-.3-.71-.55-1.43-.77-2.17-.1-.35-.1-.73-.13-1.1.97-.58,1.62-1.63,1.62-2.84,0-1.82-1.48-3.3-3.3-3.3s-3.3,1.48-3.3,3.3c0,1.2.65,2.26,1.61,2.83,0,.03,0,.07,0,.11-.01.9-.44,1.94-.79,2.77-.36.86-.81,1.67-1.34,2.43-1.04,1.49-2.37,2.77-3.88,3.79-2.41,1.64-7.61,3.19-10.39,3.19s-7.98-1.56-10.39-3.19c-1.5-1.02-2.84-2.3-3.88-3.79-.53-.76-.98-1.57-1.34-2.43-.34-.82-.77-1.87-.79-2.77,0-.04,0-.07,0-.11.96-.58,1.61-1.63,1.61-2.83,0-1.82-1.48-3.3-3.3-3.3s-3.3,1.48-3.3,3.3c0,1.21.65,2.27,1.62,2.84-.03.37-.03.75-.13,1.1-.22.73-.47,1.46-.77,2.17-.61,1.44-1.49,2.7-2.6,3.82-3.26,3.26-7.66,4.82-12.22,5.02-2.7.12-5.44-.27-7.95-1.28-3.19-1.29-5.98-3.59-7.72-6.57-.76-1.3-1.09-2.67-1.44-4.12-.01-.04-.01-.08-.01-.11.98-.57,1.65-1.64,1.65-2.86,0-1.82-1.48-3.3-3.3-3.3s-3.3,1.48-3.3,3.3c0,1.22.66,2.29,1.65,2.86,0,.08-.01.18-.04.31-.14.63-.28,1.26-.48,1.88-.27.84-.6,1.64-1.07,2.38-.62.98-1.3,1.91-2.15,2.73-3.3,3.15-7.8,4.77-12.34,4.87-.14,0-.31.02-.38.15-.03.06-.03.13-.03.2,0,.75,0,1.5,0,2.25,0,.42.09.58.53.56,3.12-.15,6.35-.77,9.18-2.14,2.01-.97,3.87-2.28,5.44-3.87.37-.38.71-.79,1.08-1.17.04-.04.07-.06.1-.07v14.35h-2.9v3.55h9.54v-3.55h-3.05v-14.49s.04.04.06.07c.19.25.37.51.6.74,1.67,1.61,3.37,3.04,5.45,4.12,2.03,1.06,4.22,1.8,6.48,2.17,4.47.74,9.2.09,13.3-1.83.64-.3,1.23-.69,1.87-1.01,1.78-1.06,3.35-2.36,4.65-3.97.08-.1.15-.27.27-.29v14.5h-2.97v3.55h9.54v-3.55h-2.97v-14.44c.05.08.08.19.14.25,1.55,1.71,3.24,3.24,5.3,4.32,1.63.85,3.34,1.56,5.12,2.03,1.82.49,4.03.68,5.67.68s3.85-.19,5.67-.68c1.78-.48,3.49-1.18,5.12-2.03,2.06-1.08,3.76-2.6,5.3-4.32.06-.06.09-.17.14-.25v14.44h-2.97v3.55h9.54v-3.55h-2.97v-14.5c.12.02.19.2.27.29,1.3,1.62,2.88,2.91,4.65,3.97.63.32,1.22.71,1.87,1.01,3.01,1.41,6.35,2.12,9.67,2.12v-3.23Z"/>
    </g>
  </g>
</svg>