<?xml version="1.0" encoding="UTF-8"?>
<svg xmlns="http://www.w3.org/2000/svg" viewBox="0 0 143.93 143.89">
  <defs>
    <style>
      .cls-1 {
        fill: #fff;
      }

      .cls-2 {
        fill: #6d6e71;
        stroke: #6d6e71;
        stroke-miterlimit: 10;
        stroke-width: 2px;
      }
    </style>
  </defs>
  <g id="Layer_1">
    <rect class="cls-2" x="1.1" y="1.08" width="141.73" height="141.73" rx="22.68" ry="22.68"/>
  </g>
  <g id="icon">
    <g>
      <path class="cls-1" d="M36.1,56.35c.71,3.35,2.19,7.29,2.19,7.29,0,0,.69,1.58-1.31,1.58h-8.58c-1.55.42-2.29,1.43-2.33,3.04-.05,1.88.01,3.75-.02,5.63-.02.99.44,1.36,1.37,1.31.37-.02.75,0,1.13,0,13.83,0,27.67,0,41.5,0,13.78,0,33.8,0,47.58,0,.43,0,.86-.02,1.29,0,.88.04,1.27-.36,1.26-1.25-.02-1.72.02-3.43-.01-5.15-.03-2.09-1.12-3.3-3.19-3.54-.53-.06-1.07-.03-1.61-.03-11.63,0-29.51,0-41.14,0h-8.21c-3.7.01-12,.01-15.7,0-1.74,0-1.1-1.44-1.1-1.44,0,0,1.6-3.88,2.4-7.43"/>
      <path class="cls-1" d="M29.52,122.47c-2.2,0-3.49-1.25-3.61-3.47-.08-1.44-.02-37.39,0-37.87.04-.56.35-.88.93-.89.48,0,.97-.02,1.45-.02,13.94,0,20.26,0,34.2,0,13.73,0,41.32,0,55.05,0,.43,0,.86,0,1.29,0,1.43.04,1.53.12,1.53,1.6.01,6.01,0,12.01,0,18.02,0,6.22,0,12.44,0,18.66,0,2.9-1.07,3.94-4,3.97H29.52Z"/>
      <rect class="cls-1" x="34.34" y="53.37" width="18.85" height="3.55" rx="1.65" ry="1.65"/>
      <g>
        <path class="cls-1" d="M114.3,44.32c-.28-1.16-1.31-1.36-2.34-1.4-.61-.02-1.22-.02-1.82-.02-8.21,0-16.41,0-24.62,0-3.27,0-6.54,0-9.8,0-5.62,0-11.25,0-16.87.02-1.15,0-2.14.32-2.42,1.61-.23,1.07-.29,2.18.61,2.98.96.85,2,.39,2.97-.1.74-.37,1.34-.98,2.2-1.17,1.61-.35,1.88-.19,1.9,1.46.03,2.43-.02,4.87.02,7.3.03,1.97-.17,3.95.21,5.91.53,2.68,2.16,4.27,4.72,5,1.03.29,2.09.32,3.16.32,8.74,0,17.48,0,26.22-.01.91,0,1.83-.05,2.72-.2,3.34-.56,5.38-2.89,5.49-6.26.06-1.75.01-3.5.01-5.24,0-2.36.04-4.71-.01-7.07-.02-1.11.33-1.48,1.47-1.29,1.03.17,1.82.7,2.67,1.21.95.58,1.98.96,2.96.13,1.03-.87.83-2.09.57-3.19Z"/>
        <path class="cls-1" d="M66.43,40.35c6.3.02,12.6.01,18.9.01,6.3,0,12.6,0,18.9-.01.71,0,1.66.35,2.04-.5.33-.74-.24-1.46-.64-2.09-1.39-2.19-3.5-3.03-6.01-3.04-3.49-.01-9.52,0-10.47,0h-1.03c.47-1.24.56-2.53.56-2.53,0-1.52-1.56-2.74-3.08-2.74s-3.08,1.23-3.08,2.74c0,0,.09,1.28.56,2.52h-2.45c-3.19.02-6.38,0-9.56,0-2.52.01-4.59.93-5.97,3.12-.4.63-.92,1.37-.54,2.11.37.72,1.23.41,1.88.41Z"/>
      </g>
    </g>
  </g>
</svg>