<?xml version="1.0" encoding="UTF-8"?>
<svg xmlns="http://www.w3.org/2000/svg" viewBox="0 0 143.93 143.89">
  <defs>
    <style>
      .cls-1 {
        fill: #fff;
      }

      .cls-2 {
        fill: #6d6e71;
        stroke: #6d6e71;
        stroke-miterlimit: 10;
        stroke-width: 2px;
      }
    </style>
  </defs>
  <g id="Layer_1">
    <rect class="cls-2" x="1.1" y="1.08" width="141.73" height="141.73" rx="22.68" ry="22.68"/>
  </g>
  <g id="icon">
    <path class="cls-1" d="M71.92,119.73c-15.04,0-30.08,0-45.12,0-.13,0-.26,0-.4,0-1.35-.02-1.94-.59-1.95-1.92,0-2.74,0-5.47,0-8.21,0-3.3.03-6.6-.02-9.89-.01-.89.23-1.59.81-2.24,1.72-1.91,3.42-3.84,5.13-5.76.35-.39.65-.85,1.05-1.18.87-.7.96-1.6.96-2.64-.03-9.99-.02-19.99-.02-29.98,0-1.07,0-1.06-1-1.49-3.7-1.63-6.09-4.36-6.8-8.37-.26-1.44-.24-2.92.24-4.39,1.83-5.64,3.59-11.31,5.37-16.96.08-.25.15-.5.21-.76.25-1.08.51-1.31,1.62-1.31,4.65,0,9.3,0,13.95,0,21.83,0,43.67,0,65.5,0,.3,0,.59-.01.89,0,.71.05,1.05.36,1.25,1.05,1.86,6.59,3.67,13.2,5.64,19.76.36,1.22,0,2.21-.26,3.24-.91,3.54-3.11,6.05-6.5,7.45-.61.25-.84.55-.83,1.23.02,10.42.02,20.84,0,31.27,0,.6.17,1.05.58,1.5,2.19,2.42,4.34,4.87,6.52,7.3.59.65.87,1.37.82,2.25-.31,5.43-.22,10.87-.22,16.31,0,.53,0,1.06,0,1.58,0,1.55-.62,2.19-2.21,2.19-13.39-.03-26.78-.02-40.17-.02-1.68,0-3.36,0-5.05,0ZM78.68,88.54c2.21,0,4.42,0,6.63,0h17.26c1.64,0,3.35.01,5.06,0,.96,0,.98-.01.98-1.01,0-9.8,0-19.59,0-29.39,0-.98-.1-1.07-1.04-1.16-3.05-.29-5.51-1.66-7.42-4.05-.17-.22-.24-.56-.69-.61-2.16,3.14-5.27,4.72-9.04,4.75-3.82.03-6.91-1.66-9.12-4.77-.13.04-.17.04-.19.06-.15.17-.3.35-.44.53-2.21,2.82-5.19,4.2-8.68,4.19-3.5-.01-6.47-1.41-8.65-4.25-.48-.63-.48-.62-.95-.05-2.59,3.18-5.9,4.64-10,4.19-2.81-.3-5.15-1.53-7.02-3.65-.3-.34-.56-.71-.88-1.12-.68.77-1.29,1.5-2,2.13-1.62,1.43-3.47,2.39-5.64,2.62-1.16.12-1.18.11-1.18,1.31,0,9.07,0,18.14,0,27.21,0,.69,0,1.39,0,2.08,0,.95.01.95.91.96.69,0,1.39,0,2.08,0h40.03ZM29.96,97.6c.29.03.44.07.59.07,7.74,0,15.48,0,23.23.01.56,0,.91-.18,1.2-.66.93-1.52,1.9-3.01,2.85-4.51.09-.14.18-.28.07-.46-.41-.13-.84-.07-1.26-.07-6.52,0-13.05.04-19.57-.04-1.47-.02-2.64.22-3.43,1.53-.05.08-.14.14-.2.22-1.13,1.27-2.26,2.55-3.48,3.92ZM86.33,92.18c1,1.58,2,3.08,2.92,4.64.39.66.84.87,1.58.86,7.38-.03,14.76-.01,22.15-.02.32,0,.65.08,1.02-.12-.2-.27-.37-.55-.57-.79-1.1-1.31-2.22-2.61-3.3-3.94-.5-.61-1.06-.86-1.86-.86-6.95.03-13.91.01-20.86.02-.32,0-.66-.08-1.07.2ZM58.7,97.59h26.96c-1.02-1.62-2-3.1-2.89-4.63-.44-.75-.97-1.01-1.83-1-.67,0-16.11-.03-16.61-.03-1.6-.03-2.55.42-3.26,1.83-.66,1.31-1.54,2.51-2.36,3.83ZM28.21,48.02c.19,1.15.71,2.15,1.45,3.05,1.99,2.41,5.57,3.28,8.54,2.11,2.09-.82,3.58-2.31,4.31-4.47.25-.75.21-.8-.54-.83-.16,0-.33,0-.49,0-4.08,0-8.16,0-12.25,0-.32,0-.66-.08-1.01.14ZM115.74,47.96c-.33-.14-.66-.08-.99-.08-3.95,0-7.91,0-11.86,0-1.74,0-1.82.14-1.01,1.73.02.03.03.06.05.09,1.48,2.59,3.71,4.04,6.69,3.98,3.1-.06,5.34-1.64,6.72-4.42.2-.4.46-.8.39-1.29ZM90.48,47.88c-2.14,0-4.28,0-6.42,0-.72,0-.82.14-.58.83.51,1.51,1.42,2.73,2.74,3.64,4.26,2.93,9.58.71,11.09-3.63.27-.79.24-.84-.6-.85-2.07-.01-4.15,0-6.22,0ZM53.72,47.88c-1.32,0-2.63,0-3.95,0-.89,0-1.78,0-2.67,0-.43,0-.63.16-.45.6.06.15.1.32.15.47,1.24,3.24,4.84,5.27,8.06,4.6,2.74-.56,4.61-2.13,5.64-4.7.34-.86.24-.97-.67-.98-2.04,0-4.08,0-6.12,0ZM72.06,47.88c-2.11,0-4.21,0-6.32,0-.84,0-.86.05-.62.84.94,3.06,4.71,5.85,8.75,4.7,2.4-.69,4.08-2.2,4.99-4.53.37-.94.3-1.01-.69-1.01-2.04,0-4.08,0-6.12,0Z"/>
  </g>
</svg>