<?xml version="1.0" encoding="UTF-8"?>
<svg xmlns="http://www.w3.org/2000/svg" viewBox="0 0 143.93 143.89">
  <defs>
    <style>
      .cls-1 {
        fill: #fff;
      }

      .cls-2 {
        fill: #6d6e71;
        stroke-miterlimit: 10;
        stroke-width: 2px;
      }

      .cls-2, .cls-3 {
        stroke: #6d6e71;
      }

      .cls-3 {
        fill: none;
        stroke-linecap: round;
        stroke-linejoin: round;
        stroke-width: 3px;
      }
    </style>
  </defs>
  <g id="Layer_1">
    <rect class="cls-2" x="1.1" y="1.08" width="141.73" height="141.73" rx="22.68" ry="22.68"/>
  </g>
  <g id="icon">
    <g>
      <path class="cls-1" d="M34.79,72.96s98.16,0,98.16,0c-5.48,4.59-10.97,9.16-16.75,13.37-.93.67-1.87,1.36-2.56,2.28-.78,1.04-.69,3.45-.69,3.45,0,0-31.44.03-40.84.03h-30.37l-6.94-11.11v-8.02Z"/>
      <polygon class="cls-1" points="113.7 70.73 43.59 70.73 47.29 67.18 43.59 64.09 43.59 62.7 104.45 62.7 113.7 70.73"/>
      <polygon class="cls-1" points="95.5 60.62 88.09 51.37 58.07 51.37 58.07 53.22 64.09 56 60.85 60.62 95.5 60.62"/>
      <rect class="cls-1" x="70.72" y="44.74" width="10.8" height="4.39"/>
      <rect class="cls-1" x="10.41" y="77.45" width="20.73" height="14.65"/>
      <g>
        <rect class="cls-1" x="12.13" y="73.82" width="1.62" height="3.63"/>
        <rect class="cls-1" x="16.04" y="73.82" width="1.62" height="3.63"/>
        <rect class="cls-1" x="19.95" y="73.82" width="1.62" height="3.63"/>
        <rect class="cls-1" x="23.86" y="73.82" width="1.62" height="3.63"/>
        <rect class="cls-1" x="27.77" y="73.82" width="1.62" height="3.63"/>
      </g>
      <rect class="cls-1" x="10.39" y="72.71" width="20.73" height="1.41"/>
      <g>
        <g>
          <path class="cls-3" d="M71.24,92.56c-1.75-.29-3.17-1.37-4.61-2.32-3.42-2.27-6.74-2.02-10.04.22-.58.39-1.17.79-1.77,1.15-2.51,1.5-4.99,1.38-7.44-.16-.98-.62-1.92-1.3-2.94-1.82-2.72-1.41-5.42-1.3-8.06.27-.99.59-1.94,1.25-2.94,1.83-2.4,1.38-4.78,1.19-7.11-.21-1.04-.63-2.03-1.35-3.11-1.91-2.72-1.4-5.44-1.35-8.04.31-1.79,1.14-3.51,2.38-5.65,2.78v4.09c2.15-.4,3.87-1.64,5.65-2.78,2.6-1.66,5.32-1.71,8.04-.31,1.08.56,2.07,1.28,3.11,1.91,2.33,1.4,4.71,1.58,7.11.21,1-.57,1.95-1.24,2.94-1.83,2.63-1.58,5.34-1.68,8.06-.27,1.02.53,1.96,1.21,2.94,1.82,2.45,1.55,4.93,1.66,7.44.16.6-.36,1.19-.76,1.77-1.15,3.3-2.24,6.63-2.49,10.04-.22,1.44.96,2.86,2.03,4.61,2.32v-4.09Z"/>
          <path class="cls-3" d="M71.24,99.23c-1.75-.29-3.17-1.37-4.61-2.32-3.42-2.27-6.74-2.02-10.04.22-.58.39-1.17.79-1.77,1.15-2.51,1.5-4.99,1.38-7.44-.16-.98-.62-1.92-1.3-2.94-1.82-2.72-1.41-5.42-1.3-8.06.27-.99.59-1.94,1.25-2.94,1.83-2.4,1.38-4.78,1.19-7.11-.21-1.04-.63-2.03-1.35-3.11-1.91-2.72-1.4-5.44-1.35-8.04.31-1.79,1.14-3.51,2.38-5.65,2.78v4.09c2.15-.4,3.87-1.64,5.65-2.78,2.6-1.66,5.32-1.71,8.04-.31,1.08.56,2.07,1.28,3.11,1.91,2.33,1.4,4.71,1.58,7.11.21,1-.57,1.95-1.24,2.94-1.83,2.63-1.58,5.34-1.68,8.06-.27,1.02.53,1.96,1.21,2.94,1.82,2.45,1.55,4.93,1.66,7.44.16.6-.36,1.19-.76,1.77-1.15,3.3-2.24,6.63-2.49,10.04-.22,1.44.96,2.86,2.03,4.61,2.32v-4.09Z"/>
        </g>
        <g>
          <path class="cls-3" d="M71.24,92.56c1.75-.29,3.17-1.37,4.61-2.32,3.42-2.27,6.74-2.02,10.04.22.58.39,1.17.79,1.77,1.15,2.51,1.5,4.99,1.38,7.44-.16.98-.62,1.92-1.3,2.94-1.82,2.72-1.41,5.42-1.3,8.06.27.99.59,1.94,1.25,2.94,1.83,2.4,1.38,4.78,1.19,7.11-.21,1.04-.63,2.03-1.35,3.11-1.91,2.72-1.4,5.44-1.35,8.04.31,1.79,1.14,3.51,2.38,5.65,2.78v4.09c-2.15-.4-3.87-1.64-5.65-2.78-2.6-1.66-5.32-1.71-8.04-.31-1.08.56-2.07,1.28-3.11,1.91-2.33,1.4-4.71,1.58-7.11.21-1-.57-1.95-1.24-2.94-1.83-2.63-1.58-5.34-1.68-8.06-.27-1.02.53-1.96,1.21-2.94,1.82-2.45,1.55-4.93,1.66-7.44.16-.6-.36-1.19-.76-1.77-1.15-3.3-2.24-6.63-2.49-10.04-.22-1.44.96-2.86,2.03-4.61,2.32v-4.09Z"/>
          <path class="cls-3" d="M71.24,99.23c1.75-.29,3.17-1.37,4.61-2.32,3.42-2.27,6.74-2.02,10.04.22.58.39,1.17.79,1.77,1.15,2.51,1.5,4.99,1.38,7.44-.16.98-.62,1.92-1.3,2.94-1.82,2.72-1.41,5.42-1.3,8.06.27.99.59,1.94,1.25,2.94,1.83,2.4,1.38,4.78,1.19,7.11-.21,1.04-.63,2.03-1.35,3.11-1.91,2.72-1.4,5.44-1.35,8.04.31,1.79,1.14,3.51,2.38,5.65,2.78v4.09c-2.15-.4-3.87-1.64-5.65-2.78-2.6-1.66-5.32-1.71-8.04-.31-1.08.56-2.07,1.28-3.11,1.91-2.33,1.4-4.71,1.58-7.11.21-1-.57-1.95-1.24-2.94-1.83-2.63-1.58-5.34-1.68-8.06-.27-1.02.53-1.96,1.21-2.94,1.82-2.45,1.55-4.93,1.66-7.44.16-.6-.36-1.19-.76-1.77-1.15-3.3-2.24-6.63-2.49-10.04-.22-1.44.96-2.86,2.03-4.61,2.32v-4.09Z"/>
        </g>
      </g>
      <g>
        <path class="cls-1" d="M71.24,92.56c-1.75-.29-3.17-1.37-4.61-2.32-3.42-2.27-6.74-2.02-10.04.22-.58.39-1.17.79-1.77,1.15-2.51,1.5-4.99,1.38-7.44-.16-.98-.62-1.92-1.3-2.94-1.82-2.72-1.41-5.42-1.3-8.06.27-.99.59-1.94,1.25-2.94,1.83-2.4,1.38-4.78,1.19-7.11-.21-1.04-.63-2.03-1.35-3.11-1.91-2.72-1.4-5.44-1.35-8.04.31-1.79,1.14-3.51,2.38-5.65,2.78v4.09c2.15-.4,3.87-1.64,5.65-2.78,2.6-1.66,5.32-1.71,8.04-.31,1.08.56,2.07,1.28,3.11,1.91,2.33,1.4,4.71,1.58,7.11.21,1-.57,1.95-1.24,2.94-1.83,2.63-1.58,5.34-1.68,8.06-.27,1.02.53,1.96,1.21,2.94,1.82,2.45,1.55,4.93,1.66,7.44.16.6-.36,1.19-.76,1.77-1.15,3.3-2.24,6.63-2.49,10.04-.22,1.44.96,2.86,2.03,4.61,2.32v-4.09Z"/>
        <path class="cls-1" d="M71.24,99.23c-1.75-.29-3.17-1.37-4.61-2.32-3.42-2.27-6.74-2.02-10.04.22-.58.39-1.17.79-1.77,1.15-2.51,1.5-4.99,1.38-7.44-.16-.98-.62-1.92-1.3-2.94-1.82-2.72-1.41-5.42-1.3-8.06.27-.99.59-1.94,1.25-2.94,1.83-2.4,1.38-4.78,1.19-7.11-.21-1.04-.63-2.03-1.35-3.11-1.91-2.72-1.4-5.44-1.35-8.04.31-1.79,1.14-3.51,2.38-5.65,2.78v4.09c2.15-.4,3.87-1.64,5.65-2.78,2.6-1.66,5.32-1.71,8.04-.31,1.08.56,2.07,1.28,3.11,1.91,2.33,1.4,4.71,1.58,7.11.21,1-.57,1.95-1.24,2.94-1.83,2.63-1.58,5.34-1.68,8.06-.27,1.02.53,1.96,1.21,2.94,1.82,2.45,1.55,4.93,1.66,7.44.16.6-.36,1.19-.76,1.77-1.15,3.3-2.24,6.63-2.49,10.04-.22,1.44.96,2.86,2.03,4.61,2.32v-4.09Z"/>
      </g>
      <g>
        <path class="cls-1" d="M71.24,92.56c1.75-.29,3.17-1.37,4.61-2.32,3.42-2.27,6.74-2.02,10.04.22.58.39,1.17.79,1.77,1.15,2.51,1.5,4.99,1.38,7.44-.16.98-.62,1.92-1.3,2.94-1.82,2.72-1.41,5.42-1.3,8.06.27.99.59,1.94,1.25,2.94,1.83,2.4,1.38,4.78,1.19,7.11-.21,1.04-.63,2.03-1.35,3.11-1.91,2.72-1.4,5.44-1.35,8.04.31,1.79,1.14,3.51,2.38,5.65,2.78v4.09c-2.15-.4-3.87-1.64-5.65-2.78-2.6-1.66-5.32-1.71-8.04-.31-1.08.56-2.07,1.28-3.11,1.91-2.33,1.4-4.71,1.58-7.11.21-1-.57-1.95-1.24-2.94-1.83-2.63-1.58-5.34-1.68-8.06-.27-1.02.53-1.96,1.21-2.94,1.82-2.45,1.55-4.93,1.66-7.44.16-.6-.36-1.19-.76-1.77-1.15-3.3-2.24-6.63-2.49-10.04-.22-1.44.96-2.86,2.03-4.61,2.32v-4.09Z"/>
        <path class="cls-1" d="M71.24,99.23c1.75-.29,3.17-1.37,4.61-2.32,3.42-2.27,6.74-2.02,10.04.22.58.39,1.17.79,1.77,1.15,2.51,1.5,4.99,1.38,7.44-.16.98-.62,1.92-1.3,2.94-1.82,2.72-1.41,5.42-1.3,8.06.27.99.59,1.94,1.25,2.94,1.83,2.4,1.38,4.78,1.19,7.11-.21,1.04-.63,2.03-1.35,3.11-1.91,2.72-1.4,5.44-1.35,8.04.31,1.79,1.14,3.51,2.38,5.65,2.78v4.09c-2.15-.4-3.87-1.64-5.65-2.78-2.6-1.66-5.32-1.71-8.04-.31-1.08.56-2.07,1.28-3.11,1.91-2.33,1.4-4.71,1.58-7.11.21-1-.57-1.95-1.24-2.94-1.83-2.63-1.58-5.34-1.68-8.06-.27-1.02.53-1.96,1.21-2.94,1.82-2.45,1.55-4.93,1.66-7.44.16-.6-.36-1.19-.76-1.77-1.15-3.3-2.24-6.63-2.49-10.04-.22-1.44.96-2.86,2.03-4.61,2.32v-4.09Z"/>
      </g>
    </g>
  </g>
</svg>