<?xml version="1.0" encoding="UTF-8"?>
<svg xmlns="http://www.w3.org/2000/svg" viewBox="0 0 143.93 143.72">
  <defs>
    <style>
      .cls-1 {
        fill: #fff;
      }

      .cls-2 {
        fill: #6d6e71;
        stroke: #6d6e71;
        stroke-miterlimit: 10;
        stroke-width: 2px;
      }
    </style>
  </defs>
  <g id="Layer_1">
    <rect class="cls-2" x="1.1" y="1" width="141.73" height="141.73" rx="22.68" ry="22.68"/>
  </g>
  <g id="icon">
    <path class="cls-1" d="M45.57,97.62c.66-.9,1.53-1.87,2.72-1.98,4.32-.41,8.64-.8,12.96-1.18,5.09-.44,10.18-.82,15.27-1.28,6.29-.57,12.58-1.2,18.87-1.79,5.46-.51,10.93-1.04,16.4-1.48,1.7-.14,2.6-.92,3.22-2.48,3.1-7.84,6.29-15.65,9.45-23.47.29-.71.61-1.42.77-2.16.4-1.85-.33-2.95-2.18-3.37-.43-.1-.88-.12-1.33-.17-3.11-.35-6.21-.7-9.32-1.03-4.06-.44-8.13-.85-12.19-1.28-5.27-.56-10.53-1.14-15.8-1.71-5.2-.57-10.4-1.15-15.61-1.71-5.39-.58-10.79-1.14-16.18-1.72-5.14-.56-10.27-1.3-15.42-1.64-2.63-.18-4.22-.85-4.85-3.66-1.03-4.6-7.58-6.33-12.36-7.74-2.33-.69-3.83-.16-4.32,1.48-.52,1.75.49,2.99,2.91,3.68,2.92.84,6.21,1.79,8.29,4.15,1.89,2.14,8.04,22.3,10.45,29.45,1.66,4.9,3.31,9.8,5.03,14.69.38,1.09.28,1.91-.47,2.81-1.18,1.39-2.34,2.96-3.15,4.6-.66,1.35-1.05,2.87-.85,4.36.36,2.59,2.42,4.49,4.71,5.51,1.17.52,2.44.85,3.72.94.49.04,4.22.23,4.28.06-.31.81-.49,1.69-.49,2.62,0,4.02,3.26,7.29,7.29,7.29s7.29-3.26,7.29-7.29c0-.86-.16-1.69-.43-2.46,8.17.07,17.63.11,25.81.14-.25.73-.38,1.51-.38,2.32,0,4.02,3.26,7.29,7.29,7.29s7.29-3.26,7.29-7.29c0-.8-.13-1.57-.37-2.29,3.49,0,5.68,0,5.84-.03,1.51-.16,2.42-1.11,2.48-2.45.06-1.26-.85-2.49-2.2-2.76-.8-.16-1.65-.15-2.48-.15-19.37,0-36.88,0-56.24,0-2.2,0-4.5-.05-6.2-1.68-.49-.47-.89-1.07-.98-1.75-.17-1.29.75-2.36,1.48-3.35Z"/>
  </g>
</svg>