<?xml version="1.0" encoding="UTF-8"?>
<svg xmlns="http://www.w3.org/2000/svg" viewBox="0 0 143.74 143.78">
  <defs>
    <style>
      .cls-1 {
        stroke: #58595b;
        stroke-miterlimit: 10;
        stroke-width: 2px;
      }

      .cls-1, .cls-2 {
        fill: #fff;
      }

      .cls-3 {
        fill: #6d6e71;
      }

      .cls-3, .cls-2 {
        stroke-width: 0px;
      }
    </style>
  </defs>
  <g id="Layer_1" data-name="Layer 1">
    <rect class="cls-1" x="1" y="1.02" width="141.73" height="141.73" rx="22.68" ry="22.68"/>
  </g>
  <g id="icon">
    <g>
      <rect class="cls-3" x="15.08" y="13.7" width="58.34" height="80.2" rx="3.91" ry="3.91"/>
      <g>
        <path class="cls-2" d="M66.93,41.48v-18.55c0-1.17-.95-2.12-2.12-2.12H22.89c-1.17,0-2.12.95-2.12,2.12v18.55h46.17Z"/>
        <path class="cls-2" d="M20.77,66.12v18.55c0,1.17.95,2.12,2.12,2.12h41.92c1.17,0,2.12-.95,2.12-2.12v-18.55H20.77Z"/>
      </g>
    </g>
    <g>
      <path class="cls-3" d="M131.96,64.95c-.66-2.53-1.92-4.61-3.81-6.34-2.48-2.28-5.34-3.58-8.78-3.53-3.99.06-7.98,0-11.97.02-5.97.02-10.88,3.74-12.54,9.48-.28.98-.57,1.97-.86,2.95-.05.15-.02.38-.2.43-.21.05-.29-.19-.4-.32-1.73-2.06-3.46-4.12-5.18-6.19-.61-.72-1.34-1.26-2.28-1.42-.53-.09-.65-.32-.65-.83.02-5.13.01-8.4.01-13.52,0-.72-.03-.76-.73-.76-2.31,0-4.61,0-6.92,0-.68,0-.73.05-.73.71,0,5.67,0,9.49,0,15.17,0,.66.05.71.72.72,1.3,0,2.6,0,3.9,0,.25,0,.51-.04.29.37-.84,1.55-.53,2.98.53,4.28,3.22,3.92,6.45,7.83,9.68,11.73.4.48.83.93,1.34,1.3,1.6,1.15,3.5.9,4.76-.61.54-.64.9-1.38,1.15-2.17.76-2.41,1.51-4.82,2.27-7.23.49-1.55.17-1.23,1.67-1.26.69-.01.5.65.5.65v30.75h.03c0,10.66,0,23.7,0,34.03,0,.46,0,.93.09,1.39.41,2.11,2.14,3.57,4.28,3.59,2.03.02,3.76-1.37,4.23-3.41.12-.51.16-1.03.16-1.56,0-10.99,0-21.97,0-32.96,0-.94-.08-.83.85-.83.72,0,.72,0,.72.74,0,11.03,0,22.06,0,33.09,0,.3,0,.6.01.9.09,1.88,1.26,3.42,3,3.96,1.77.55,3.75-.09,4.86-1.57.79-1.05.96-2.27.96-3.53,0-10.22,0-23.26,0-33.83h.05v-30.26s-.32-1.12.86-1.16c.56-.02.88.7.88.7v22.85s-.35,2.75,3.65,2.75,4.07-3.5,4.07-3.5c0,0,1.27-19.05-.46-25.74Z"/>
      <path class="cls-3" d="M113.44,53.17c5.07.02,9.29-4.14,9.26-9.26-.03-5.19-4.19-9.19-9.25-9.22-5.06-.03-9.22,4.16-9.22,9.23,0,5.08,4.13,9.23,9.21,9.25Z"/>
    </g>
  </g>
</svg>