<?xml version="1.0" encoding="UTF-8"?>
<svg xmlns="http://www.w3.org/2000/svg" width="150" height="150" viewBox="0 0 143.74 143.78">
  <defs>
    <style>
      .cls-1, .cls-2 {
        fill: #fff;
      }

      .cls-3 {
        fill: #6d6e71;
      }

      .cls-2 {
        stroke: #58595b;
        stroke-miterlimit: 10;
        stroke-width: 2px;
      }
    </style>
  </defs>
  <g id="Layer_1">
    <rect class="cls-2" x="1" y="1.02" width="141.73" height="141.73" rx="22.68" ry="22.68"/>
  </g>
  <g id="icon">
    <g>
      <path class="cls-3" d="M29.96,81.65c0-4.78,1.13-9.29,3.7-13.39,2.93-4.67,6.98-8.12,12.23-10.28,3.3-1.36,6.7-2.22,10.28-2.17,4.46.06,8.61,1.16,12.18,3.86.98.74,1.92,1.54,2.64,2.54.25.35.43.42.77.02,2.55-3,5.79-4.92,9.72-5.79,1.96-.43,3.94-.71,5.95-.63,3.28.13,6.41.9,9.42,2.17,6.04,2.54,10.49,6.69,13.39,12.37,1.37,2.7,2.07,5.59,2.4,8.58.36,3.24,0,6.42-.79,9.55-.96,3.78-2.68,7.22-4.92,10.45-2.64,3.82-5.84,7.15-9.35,10.22-3.43,3-7.13,5.66-10.98,8.13-3.62,2.32-7.43,4.3-11.33,6.13-1.18.55-2.38,1.04-3.57,1.57-.21.09-.37.07-.57-.02-5.46-2.22-10.66-4.91-15.59-8.08-4.33-2.78-8.42-5.86-12.17-9.35-3-2.79-5.72-5.8-7.96-9.19-2.72-4.11-4.54-8.55-5.21-13.41-.02-.12-.03-.24-.04-.35-.06-.98-.12-1.97-.18-2.95Z"/>
      <polygon class="cls-1" points="103.95 67.22 82.72 72.78 95.37 52.82 85.62 52.82 68.49 83.79 91.88 77.45 84.79 90.6 81.51 88.68 78.94 103.93 90.96 94.21 87.88 92.4 103.95 67.22"/>
      <g>
        <path class="cls-3" d="M43.04,40.56l-2.87,8.25h-3.69l9.38-26.23h4.3l9.42,26.23h-3.81l-2.95-8.25h-9.79ZM52.09,37.91l-2.7-7.55c-.61-1.71-1.02-3.27-1.43-4.79h-.08c-.41,1.56-.86,3.15-1.39,4.75l-2.7,7.59h8.32Z"/>
        <path class="cls-3" d="M77.94,36.51h-10.73v9.46h11.96v2.84h-15.53v-26.23h14.91v2.84h-11.35v8.29h10.73v2.8Z"/>
        <path class="cls-3" d="M83.8,22.93c2.17-.31,4.75-.54,7.58-.54,5.12,0,8.77,1.13,11.18,3.27,2.46,2.14,3.89,5.17,3.89,9.42s-1.39,7.78-3.97,10.19c-2.58,2.45-6.84,3.77-12.21,3.77-2.54,0-4.67-.12-6.47-.31v-25.8ZM87.36,46.12c.9.16,2.21.19,3.6.19,7.62,0,11.76-4.05,11.76-11.13.04-6.19-3.65-10.12-11.18-10.12-1.84,0-3.24.16-4.18.35v20.7Z"/>
      </g>
    </g>
  </g>
</svg>