<?xml version="1.0" encoding="UTF-8"?>
<svg xmlns="http://www.w3.org/2000/svg" width="150" height="150"  viewBox="0 0 143.67 143.78">
  <defs>
    <style>
      .cls-1 {
        stroke: #58595b;
        stroke-miterlimit: 10;
        stroke-width: 2px;
      }

      .cls-1, .cls-2 {
        fill: #fff;
      }

      .cls-3 {
        fill: #6d6e71;
      }

      .cls-3, .cls-2 {
        stroke-width: 0px;
      }
    </style>
  </defs>
  <g id="Layer_1" data-name="Layer 1">
    <rect class="cls-1" x=".95" y="1.06" width="141.73" height="141.73" rx="22.68" ry="22.68"/>
  </g>
  <g id="icon">
    <rect class="cls-3" x="11.88" y="11.99" width="119.89" height="119.89" rx="14.13" ry="14.13"/>
    <g>
      <polygon class="cls-2" points="91.23 31.43 91.23 43.33 79.04 43.33 79.04 28.02 64.59 28.02 64.59 43.33 52.41 43.33 52.41 31.43 38.75 31.43 38.75 43.33 38.75 55.48 52.41 55.48 64.59 55.48 64.59 77.84 52.41 77.84 52.41 62.36 38.75 62.36 38.75 77.84 38.75 90.4 38.75 90.4 52.41 90.4 52.41 90.4 91.23 90.4 91.23 90.4 104.89 90.4 104.89 90.4 104.89 77.84 104.89 62.36 91.23 62.36 91.23 77.84 79.04 77.84 79.04 55.48 91.23 55.48 104.89 55.48 104.89 43.33 104.89 31.43 91.23 31.43"/>
      <path class="cls-2" d="M52.43,115.84h-13.69v-21.42h13.69v3.73h-9.35v5.02h8.76v3.73h-8.76v5.2h9.35v3.73Z"/>
      <path class="cls-2" d="M74.73,115.84h-4.96l-4.3-7.46-4.27,7.46h-4.96l6.89-10.98-6.45-10.44h4.93l3.87,6.92,3.9-6.92h4.89l-6.45,10.44,6.92,10.98Z"/>
      <path class="cls-2" d="M83.81,115.84h-4.33v-21.42h4.33v21.42Z"/>
      <path class="cls-2" d="M104.8,98.15h-5.8v17.69h-4.33v-17.69h-5.8v-3.73h15.93v3.73Z"/>
    </g>
  </g>
</svg>