<?xml version="1.0" encoding="UTF-8"?>
<svg xmlns="http://www.w3.org/2000/svg" width="150" height="150"  viewBox="0 0 143.74 143.78">
  <defs>
    <style>
      .cls-1 {
        fill: #fff;
        stroke: #58595b;
        stroke-miterlimit: 10;
        stroke-width: 2px;
      }

      .cls-2 {
        fill: #6d6e71;
        stroke-width: 0px;
      }
    </style>
  </defs>
  <g id="Layer_1" data-name="Layer 1">
    <rect class="cls-1" x="1" y="1.02" width="141.73" height="141.73" rx="22.68" ry="22.68"/>
  </g>
  <g id="icon">
    <g>
      <polygon class="cls-2" points="91.27 31.43 91.27 43.33 79.09 43.33 79.09 28.02 64.64 28.02 64.64 43.33 52.46 43.33 52.46 31.43 38.79 31.43 38.79 43.33 38.79 55.48 52.46 55.48 64.64 55.48 64.64 77.84 52.46 77.84 52.46 62.36 38.79 62.36 38.79 77.84 38.79 90.4 38.79 90.4 52.46 90.4 52.46 90.4 91.27 90.4 91.27 90.4 104.93 90.4 104.93 90.4 104.93 77.84 104.93 62.36 91.27 62.36 91.27 77.84 79.09 77.84 79.09 55.48 91.27 55.48 104.93 55.48 104.93 43.33 104.93 31.43 91.27 31.43"/>
      <path class="cls-2" d="M52.48,115.84h-13.69v-21.42h13.69v3.73h-9.35v5.02h8.76v3.73h-8.76v5.2h9.35v3.73Z"/>
      <path class="cls-2" d="M74.78,115.84h-4.96l-4.3-7.46-4.27,7.46h-4.96l6.89-10.98-6.45-10.44h4.93l3.87,6.92,3.9-6.92h4.89l-6.45,10.44,6.92,10.98Z"/>
      <path class="cls-2" d="M83.85,115.84h-4.33v-21.42h4.33v21.42Z"/>
      <path class="cls-2" d="M104.84,98.15h-5.8v17.69h-4.33v-17.69h-5.8v-3.73h15.93v3.73Z"/>
    </g>
  </g>
</svg>