<?xml version="1.0" encoding="UTF-8"?>
<svg xmlns="http://www.w3.org/2000/svg" viewBox="0 0 143.74 143.78">
  <defs>
    <style>
      .cls-1 {
        font-family: Montserrat-Bold, Montserrat;
        font-size: 82.02px;
        font-weight: 700;
      }

      .cls-1, .cls-2, .cls-3 {
        fill: #fff;
      }

      .cls-2 {
        stroke: #58595b;
        stroke-width: 2px;
      }

      .cls-2, .cls-3 {
        stroke-miterlimit: 10;
      }

      .cls-4 {
        fill: #6d6e71;
        stroke-width: 0px;
      }

      .cls-3 {
        stroke: #fff;
        stroke-width: 5px;
      }
    </style>
  </defs>
  <g id="Layer_1" data-name="Layer 1">
    <rect class="cls-2" x="1.03" y="1.03" width="141.73" height="141.73" rx="22.68" ry="22.68"/>
  </g>
  <g id="icon">
    <g>
      <rect class="cls-4" x="15.77" y="15.72" width="81.16" height="81.16" rx="9.2" ry="9.2"/>
      <text class="cls-1" transform="translate(29.23 85.46)"><tspan x="0" y="0">P</tspan></text>
      <path class="cls-3" d="M132.44,120c-.06-.4-.13-.8-.21-1.19-.57-2.69-1.62-4.7-3.58-7.15-2.32-3.27-7.29-4.5-7.29-4.5,0,0,1.15-.89,1.38-2.47h1.43v-2.59h-1.5c-.22-1.48-.85-2.85-2.6-2.85-2.59,0-21.61-.59-23.75,0-1.31.36-2.2,1.2-2.49,2.53-.28,1.28-.08,2.64.91,3.45.76.62.9,1.22.87,2.04-.02.72,0,1.45,0,2.18,0,.5-.11.96-.36,1.39-1.15,1.99-2.19,4.69-3.08,5.97-.88,1.28-2.41,1.07-3.27,1.05-1.33-.03-4.17,0-5.5-.01-1.35-.01-1.67-.27-2.02-1.58-1.27-4.71-2.52-9.42-3.8-14.12-.2-.72-.14-1.33.23-1.96,1.59-2.71,3.18-5.42,4.72-8.16.39-.7.88-.92,1.65-.9,1.45.05,2.9.01,4.35.02.49,0,.96-.03,1.37-.36.59-.48.87-1.26.66-1.93-.27-.84-.82-1.41-1.74-1.44-1.29-.04-2.58-.05-3.87-.02-.7.02-.99-.19-1.03-.95-.06-1.21-.58-1.71-1.81-1.85-.96-.11-1.93,0-2.89.03-1.35.03-2.52,1.4-2.63,2.44-.13,1.21.57,2.41,1.88,2.9.71.27.6.56.31,1.05-.24.42-.61.48-1.03.48-.89,0-1.78.03-2.66,0-.99-.04-1.65.36-2.15,1.24-.18.32-.37.64-.55.97-2.61.26-3.84,3.14-2.58,4.47,0,0,0,0,.01,0-.99,1.72-1.99,3.43-2.97,5.15-.22.38-.51.75-.42,1.23.08.41-.13.47-.46.5-3.85.43-7.02,2.23-9.8,4.82-.67.63-1.27,1.35-1.89,2.04-.19.22-.3.5-.05.76.2.21.44.13.67.05,1.06-.38,2.12-.79,3.19-1.13,2.59-.83,5.24-1.26,7.97-.87,1.05.15,1.16.3.66,1.17q-.64,1.13-1.96.87c-5.61-1.11-11.09,3.31-11.14,9.05-.07,7.3,7.67,11.91,13.95,8.47,3.05-1.68,5.45-5.53,4.81-9.53-.32-1.98-1.09-3.69-2.45-5.15-.32-.34-.64-.63-.33-1.14.39-.64.76-1.29,1.18-2,.49.45.7.93.95,1.38,1.7,2.93,3.4,5.85,5.04,8.81.52.95,1.13,1.39,2.28,1.36,3.18-.08,6.37-.03,9.55-.03,5.84,0,11.69.01,17.53,0,1.51,0,1.32.15,1.76,1.31,1.65,4.33,6.09,6.86,10.53,5.98,4.98-.98,8.55-5.57,7.49-11.19-.74-3.91-3.9-6.79-7.98-7.42-3.38-.53-7.42,1.18-9.4,4.67-.36.63-.65,1.3-.84,2-.15.56-.48.8-1.06.75-.28-.02-.56,0-.85,0-1.06-.03-1.1-.07-.85-1.12,1.48-6.25,8.15-10.31,14.45-8.81,5.1,1.22,8.69,5.2,9.41,10.45.18,1.31.98,2.1,1.98,1.96,1.05-.14,1.84-1.36,1.65-2.55ZM67.46,125.49c-1.63,1.98-3.83,2.55-6.19,1.82-2.29-.71-3.7-2.72-3.75-5.09-.06-3.17,1.94-5.46,5.09-5.83.4-.05.8-.06,1.29.25-.41,1.02-1.04,1.87-1.52,2.79-.32.6-.7,1.18-.98,1.8-.43.93-.1,1.89.76,2.39.85.49,1.87.3,2.45-.56.6-.9,1.11-1.87,1.66-2.8.2-.35.38-.71.59-1.05.46-.77.63-.76,1.1.04,1.11,1.9.89,4.58-.48,6.25ZM116.79,120.11c-.8-.08-1.61-.02-2.41-.02,0-.01,0-.02,0-.03-.72,0-1.45,0-2.17,0-.59,0-.71-.25-.43-.75.55-.97,1.31-1.73,2.28-2.27,1.82-1,4.56-.74,6.15.59,1.84,1.55,2.57,3.93,1.84,6.08-.78,2.3-2.71,3.78-5.03,3.85-2.23.07-3.99-.79-5.16-2.73-.4-.66-.31-.84.48-.86,1.05-.03,2.09,0,3.14-.02.48,0,.97-.04,1.44-.12,1.09-.2,1.65-.88,1.63-1.9-.02-.95-.7-1.72-1.75-1.82Z"/>
      <path class="cls-4" d="M132.44,120c-.06-.4-.13-.8-.21-1.19-.57-2.69-1.62-4.7-3.58-7.15-2.32-3.27-7.29-4.5-7.29-4.5,0,0,1.15-.89,1.38-2.47h1.43v-2.59h-1.5c-.22-1.48-.85-2.85-2.6-2.85-2.59,0-21.61-.59-23.75,0-1.31.36-2.2,1.2-2.49,2.53-.28,1.28-.08,2.64.91,3.45.76.62.9,1.22.87,2.04-.02.72,0,1.45,0,2.18,0,.5-.11.96-.36,1.39-1.15,1.99-2.19,4.69-3.08,5.97-.88,1.28-2.41,1.07-3.27,1.05-1.33-.03-4.17,0-5.5-.01-1.35-.01-1.67-.27-2.02-1.58-1.27-4.71-2.52-9.42-3.8-14.12-.2-.72-.14-1.33.23-1.96,1.59-2.71,3.18-5.42,4.72-8.16.39-.7.88-.92,1.65-.9,1.45.05,2.9.01,4.35.02.49,0,.96-.03,1.37-.36.59-.48.87-1.26.66-1.93-.27-.84-.82-1.41-1.74-1.44-1.29-.04-2.58-.05-3.87-.02-.7.02-.99-.19-1.03-.95-.06-1.21-.58-1.71-1.81-1.85-.96-.11-1.93,0-2.89.03-1.35.03-2.52,1.4-2.63,2.44-.13,1.21.57,2.41,1.88,2.9.71.27.6.56.31,1.05-.24.42-.61.48-1.03.48-.89,0-1.78.03-2.66,0-.99-.04-1.65.36-2.15,1.24-.18.32-.37.64-.55.97-2.61.26-3.84,3.14-2.58,4.47,0,0,0,0,.01,0-.99,1.72-1.99,3.43-2.97,5.15-.22.38-.51.75-.42,1.23.08.41-.13.47-.46.5-3.85.43-7.02,2.23-9.8,4.82-.67.63-1.27,1.35-1.89,2.04-.19.22-.3.5-.05.76.2.21.44.13.67.05,1.06-.38,2.12-.79,3.19-1.13,2.59-.83,5.24-1.26,7.97-.87,1.05.15,1.16.3.66,1.17q-.64,1.13-1.96.87c-5.61-1.11-11.09,3.31-11.14,9.05-.07,7.3,7.67,11.91,13.95,8.47,3.05-1.68,5.45-5.53,4.81-9.53-.32-1.98-1.09-3.69-2.45-5.15-.32-.34-.64-.63-.33-1.14.39-.64.76-1.29,1.18-2,.49.45.7.93.95,1.38,1.7,2.93,3.4,5.85,5.04,8.81.52.95,1.13,1.39,2.28,1.36,3.18-.08,6.37-.03,9.55-.03,5.84,0,11.69.01,17.53,0,1.51,0,1.32.15,1.76,1.31,1.65,4.33,6.09,6.86,10.53,5.98,4.98-.98,8.55-5.57,7.49-11.19-.74-3.91-3.9-6.79-7.98-7.42-3.38-.53-7.42,1.18-9.4,4.67-.36.63-.65,1.3-.84,2-.15.56-.48.8-1.06.75-.28-.02-.56,0-.85,0-1.06-.03-1.1-.07-.85-1.12,1.48-6.25,8.15-10.31,14.45-8.81,5.1,1.22,8.69,5.2,9.41,10.45.18,1.31.98,2.1,1.98,1.96,1.05-.14,1.84-1.36,1.65-2.55ZM67.46,125.49c-1.63,1.98-3.83,2.55-6.19,1.82-2.29-.71-3.7-2.72-3.75-5.09-.06-3.17,1.94-5.46,5.09-5.83.4-.05.8-.06,1.29.25-.41,1.02-1.04,1.87-1.52,2.79-.32.6-.7,1.18-.98,1.8-.43.93-.1,1.89.76,2.39.85.49,1.87.3,2.45-.56.6-.9,1.11-1.87,1.66-2.8.2-.35.38-.71.59-1.05.46-.77.63-.76,1.1.04,1.11,1.9.89,4.58-.48,6.25ZM116.79,120.11c-.8-.08-1.61-.02-2.41-.02,0-.01,0-.02,0-.03-.72,0-1.45,0-2.17,0-.59,0-.71-.25-.43-.75.55-.97,1.31-1.73,2.28-2.27,1.82-1,4.56-.74,6.15.59,1.84,1.55,2.57,3.93,1.84,6.08-.78,2.3-2.71,3.78-5.03,3.85-2.23.07-3.99-.79-5.16-2.73-.4-.66-.31-.84.48-.86,1.05-.03,2.09,0,3.14-.02.48,0,.97-.04,1.44-.12,1.09-.2,1.65-.88,1.63-1.9-.02-.95-.7-1.72-1.75-1.82Z"/>
    </g>
  </g>
</svg>