<?xml version="1.0" encoding="UTF-8"?>
<svg xmlns="http://www.w3.org/2000/svg" viewBox="0 0 143.75 143.78">
  <defs>
    <style>
      .cls-1 {
        fill: #fff;
        stroke: #58595b;
        stroke-miterlimit: 10;
        stroke-width: 2px;
      }

      .cls-2 {
        fill: #6d6e71;
        stroke-width: 0px;
      }
    </style>
  </defs>
  <g id="Layer_2" data-name="Layer 2">
    <rect class="cls-1" x=".68" y="1.1" width="141.73" height="141.73" rx="22.68" ry="22.68"/>
  </g>
  <g id="icon">
    <g>
      <path class="cls-2" d="M102.35,22.91c4.58,4.97,9.23,9.07,13.11,14.01-1.01,2.25-1.95,4.43-2.96,6.58-2.75,5.87-3.01,11.91-1.45,18.15,1.22,4.85,2.53,9.66,3.17,14.66,1.89,14.64-2.1,26.89-14,36.17-4.77,3.72-10.03,6.51-15.55,8.89-4.38,1.89-9.02,3.25-13.17,6.39-3.83-3.09-8.51-4.55-12.99-6.44-3.52-1.49-6.91-3.2-10.18-5.18-8.55-5.18-15.18-11.98-18.31-21.73-1.91-5.95-1.74-12.05-1.14-18.13.42-4.33,1.3-8.63,2.67-12.76,2.84-8.55,1.39-16.51-2.77-24.22-.36-.67-.7-1.34-1.17-2.25,3.79-5,8.61-9.07,13.08-14.08,4.12,5.08,9.49,6.69,15.46,6.61,5.82-.08,11.28-1.24,15.33-6.58,4.17,5.04,9.52,6.69,15.52,6.58,5.83-.11,11.27-1.31,15.34-6.68ZM101.06,35.95c-8.87,4.27-17.75,4.63-26.67.84-1.96-.83-3.49-.96-5.5-.08-5.04,2.2-10.31,3.16-15.91,2.44-3.84-.49-7.4-1.61-10.91-3.18-1.13.79-2.13,1.59-2.66,2.92.16.4.29.81.47,1.2,3.02,6.57,3.41,13.41,2.19,20.44-1.13,6.53-3.37,12.83-3.82,19.51-.35,5.19.11,10.2,2.27,14.99,2.03,4.51,5.37,7.83,9.35,10.67,6.64,4.74,14.31,7.32,21.6,10.66,2.67-1.08,5.29-2.13,7.9-3.21,5.96-2.46,11.7-5.28,16.66-9.52,6.94-5.94,9.39-13.54,8.84-22.45-.38-6.14-2.05-11.98-3.37-17.93-1.77-7.93-1.69-15.78,1.84-23.33.18-.38.27-.81.38-1.16-.59-1.2-1.47-1.98-2.67-2.81Z"/>
      <polygon class="cls-2" points="71.54 52.3 78.19 65.78 93.07 67.94 82.31 78.43 84.85 93.25 71.54 86.25 58.24 93.25 60.78 78.43 50.01 67.94 64.89 65.78 71.54 52.3"/>
    </g>
  </g>
</svg>