<?xml version="1.0" encoding="UTF-8"?>
<svg xmlns="http://www.w3.org/2000/svg" viewBox="0 0 143.93 143.78">
  <defs>
    <style>
      .cls-1 {
        fill: #fff;
        stroke: #58595b;
        stroke-miterlimit: 10;
        stroke-width: 2px;
      }

      .cls-2 {
        fill: #6d6e71;
        stroke-width: 0px;
      }
    </style>
  </defs>
  <g id="Layer_1" data-name="Layer 1">
    <rect class="cls-1" x=".92" y="1.29" width="141.73" height="141.73" rx="22.68" ry="22.68"/>
  </g>
  <g id="icon">
    <g>
      <path class="cls-2" d="M34.94,50.11l5.03,4.63h-3.72v1.96c-4.91,0-9.5,0-13.44,0-.69,0-1.39-.04-2.07.03-2,.22-3.14,1.35-3.36,3.32-.08.68-.03,1.38-.03,2.07,0,7.18,0,14.35,0,21.53,0,3.2-.04,6.4.02,9.6.05,2.71,1.29,3.9,4,4.02.69.03,1.38,0,2.08,0,15.56,0,31.13,0,46.69,0,9.43,0,18.85,0,28.28,0,6.74,0,13.49.1,20.23-.03,14.44,0,11.46-15.85,11.46-15.85,0,0-5.02-24.7-13.88-24.7h-10.27v-1.98h-4.94l-4.57-4.21,5.3-3.4h18.92v-3H17.34v3h22.23l-4.63,2.97ZM39.84,50.54l5.3-3.4h22.41l-4.63,2.97,5.03,4.63h-3.15v1.97c-5.14,0-10.55,0-15.89,0v-1.96h-4.49l-4.57-4.21ZM37.77,74.89c-1.99-.02-3.97,0-5.96,0,0,0,0,0,0,0-1.81,0-3.63-.03-5.44.01-1.11.02-1.53-.46-1.52-1.55.04-2.42.04-4.84,0-7.26-.02-1.1.44-1.55,1.53-1.55,3.8.03,7.6.02,11.41,0,.98,0,1.4.47,1.39,1.43-.01,2.51-.02,5.01,0,7.52,0,.98-.43,1.41-1.41,1.4ZM61.02,73.42c.01,1.14-.56,1.5-1.61,1.48-1.81-.03-3.63,0-5.44,0h0c-1.64,0-3.28.03-4.92,0-1.87-.04-1.97-.12-2.01-1.86-.05-2.24.02-4.49-.02-6.73-.02-1.16.38-1.77,1.64-1.76,3.63.03,7.25.03,10.88,0,1.14,0,1.49.58,1.48,1.62-.02,2.42-.03,4.83,0,7.25ZM81.29,74.9c-1.9-.03-3.8,0-5.7,0-1.73,0-3.45-.02-5.18,0-1.09.02-1.56-.46-1.55-1.55.03-2.42.03-4.83,0-7.25-.01-1.09.47-1.56,1.56-1.55,3.63.02,7.25.02,10.88,0,1.09,0,1.56.47,1.55,1.56-.02,2.42-.03,4.83,0,7.25.01,1.1-.48,1.56-1.56,1.54ZM120.66,74.8c-.73.04-4.39.09-4.81.09-7.6,0-15.21.01-22.82,0-2.29,0-2.31-.04-2.33-2.29-.02-2.16,0-4.32,0-6.48,0-.88.21-1.5,1.26-1.56h17.95c7.91,0,9.47,3.37,10.75,10.24ZM96.59,54.74h-3.27v1.98c-2.69,0-8.51,0-15.89,0v-1.97h-5.05l-4.57-4.21,5.3-3.4h23.09l-4.63,2.97,5.03,4.63Z"/>
      <path class="cls-2" d="M126.77,103.98H17.79c-2.18,0-3.94,1.77-3.94,3.94s1.77,3.94,3.94,3.94h108.98c2.18,0,3.94-1.77,3.94-3.94s-1.77-3.94-3.94-3.94Z"/>
    </g>
  </g>
</svg>