<?xml version="1.0" encoding="UTF-8"?>
<svg xmlns="http://www.w3.org/2000/svg" viewBox="0 0 143.73 143.78">
  <defs>
    <style>
      .cls-1 {
        fill: #fff;
        stroke: #58595b;
        stroke-miterlimit: 10;
        stroke-width: 2px;
      }

      .cls-2 {
        fill: #6d6e71;
        stroke-width: 0px;
      }
    </style>
  </defs>
  <g id="Layer_1" data-name="Layer 1">
    <rect class="cls-1" x="1" y="1" width="141.73" height="141.73" rx="22.68" ry="22.68"/>
  </g>
  <g id="icon">
    <g>
      <path class="cls-2" d="M58.13,66.33c0-5.45-.03-10.9,0-16.35.04-4.62,3.13-8.58,7.64-9.6,6.85-1.56,12.04,3.27,12.26,9.3.17,4.59.05,9.19.05,13.79,0,1.36,0,1.36,1.33,1.37,4.97,0,9.94,0,14.91.02,2.26,0,3.92,1,4.85,3.08,1.4,3.12-.91,6.9-4.34,7-2.85.08-13.32-.01-15.69,0-.99,0-1.05.12-1.07,1.13-.01.52,0,1.04,0,1.56q0,1.49,1.44,1.49c2.71,0,13.99.03,16.92,0,3.35-.04,5.7,1.4,7.2,4.43,3.45,6.94,6.99,13.83,10.5,20.74,1.36,2.68,2.78,5.33,4.1,8.02,1.42,2.89,1.53,6.47-1.38,8.05-3.46,2.15-6.95,1.29-10.44-3.33-2.23-4.27-4.39-8.58-6.57-12.88-2.07-4.06-4.16-8.12-6.19-12.2-.37-.74-.82-.99-1.63-.99-7.61.03-15.21.02-22.82.03-1.34,0-2.67-.08-3.96-.49-4.14-1.3-7.04-5.04-7.08-9.37-.06-5.45-.01-9.33-.01-14.78,0,0,0,0-.01,0Z"/>
      <circle class="cls-2" cx="68.88" cy="27.65" r="8.99"/>
      <path class="cls-2" d="M90.43,95.24h-3.87c-1.31,12.95-12.24,23.07-25.53,23.09-14,.02-25.54-11.31-25.75-25.31-.19-12.39,8.39-22.81,19.93-25.46v-8.9c-16.26,2.75-28.65,16.89-28.66,33.93-.02,18.66,15.01,34.05,33.67,34.47,16.47.36,30.38-10.83,34.19-26.03-.75-1.47-1.5-2.95-2.24-4.43-.61-.97-.68-1.35-1.73-1.35Z"/>
    </g>
  </g>
</svg>