<?xml version="1.0" encoding="UTF-8"?>
<svg xmlns="http://www.w3.org/2000/svg" viewBox="0 0 143.77 143.78">
  <defs>
    <style>
      .cls-1 {
        fill: #fff;
        stroke: #58595b;
        stroke-miterlimit: 10;
        stroke-width: 2px;
      }

      .cls-2 {
        fill: #6d6e71;
        stroke-width: 0px;
      }
    </style>
  </defs>
  <g id="Layer_1" data-name="Layer 1">
    <rect class="cls-1" x="1.03" y="1.01" width="141.73" height="141.73" rx="22.68" ry="22.68"/>
  </g>
  <g id="icon">
    <g>
      <path class="cls-2" d="M78.38,50.11s1.33,1.93,3.93,8.24c3.14,7.53,6.29,15.05,9.38,22.6.76,1.86,2.01,3.07,3.97,3.27,1.49.15,2.7-.65,3.54-1.89.97-1.43.88-3.01.27-4.5-2.19-5.34-4.46-10.64-6.69-15.96-2.29-5.47-4.6-10.94-6.83-16.43-.92-2.25-2.3-3.8-5.42-3.7-5.77.17-11.55.18-17.32,0-2.89-.09-4.47,1.24-5.49,3.65-1.28,3.04-2.52,6.09-3.78,9.13-3.13,7.53-6.25,15.07-9.4,22.59-.39.93-.69,1.84-.68,2.86.02,1.75,1.14,3.54,2.86,4.1,1.94.63,4.11-.56,4.89-2.39,1.71-4.02,3.37-8.05,5.05-12.09,2.31-5.55,6.83-15.92,7.23-16.85s1.26-2.17,1.26-2.17c0,0-1.87,6.59-2.77,9.71-3.12,10.85-6.24,21.7-9.35,32.55-.53,1.84-.49,1.89,1.53,1.93,1.57.03,3.14.04,4.7,0,1.34-.04,1.98.52,1.95,1.9-.04,1.73,0,3.46,0,5.2,0,6.51-.03,13.03.02,19.54.02,2.93,1.5,4.49,4.08,4.54,2.32.04,3.78-1.2,4.2-3.68.14-.81.1-1.64.1-2.47,0-7.5,0-15.01.01-22.51,0-2.19.18-2.38,1.82-2.5,2.2-.15,2.63.2,2.64,2.42.02,7.5,0,15.01.01,22.51,0,.74-.03,1.49.02,2.23.17,2.53,1.67,3.97,4.11,4,2.53.03,4.19-1.47,4.24-4.12.08-4.7.03-9.4.04-14.1,0-3.55-.02-7.09.01-10.64.02-2.11.18-2.25,2.25-2.3,1.57-.04,3.14.03,4.7-.02,1.62-.05,1.72-.19,1.27-1.76-2.22-7.68-4.46-15.35-6.68-23.03-1.78-6.18-3.55-12.36-5.32-18.54-.07-.23-.37-1.33-.37-1.33Z"/>
      <circle class="cls-2" cx="71.9" cy="29.06" r="9.26"/>
    </g>
  </g>
</svg>