<?xml version="1.0" encoding="UTF-8"?>
<svg xmlns="http://www.w3.org/2000/svg" viewBox="0 0 143.93 143.72">
  <defs>
    <style>
      .cls-1 {
        fill: #fff;
        stroke: #58595b;
        stroke-miterlimit: 10;
        stroke-width: 2px;
      }

      .cls-2 {
        fill: #6d6e71;
        stroke-width: 0px;
      }
    </style>
  </defs>
  <g id="Layer_2" data-name="Layer 2">
    <rect class="cls-1" x="1.12" y=".99" width="141.73" height="141.73" rx="22.68" ry="22.68"/>
  </g>
  <g id="icon">
    <g>
      <path class="cls-2" d="M44.72,81.4c-8.1-3.47-15.93-6.83-24.46-10.49,9-5.22,17.48-10.13,25.97-15.05,14.17-8.21,28.34-16.4,42.5-24.62,7.18-4.17,10.55-3.38,14.62,3.65,1.65,2.86,3.13,5.82,5.1,9.51-21.13,12.27-42.22,24.51-63.73,36.99Z"/>
      <path class="cls-2" d="M44.51,96.82c-2.81-4.83-8.89-14.84-8.89-14.84l9.89,3.41s39-22.57,59.27-34.3c1.5,2.56,2.95,5.05,4.71,8.07-21.6,12.52-43.03,24.94-64.98,37.66Z"/>
      <path class="cls-2" d="M27.93,79.39l8.4,14.34c.51.88.16,2.05-.8,2.61l-3.1,2.86c-.96.56-2.19.24-2.75-.72l-9.15-15.62c-.56-.96-.24-2.19.72-2.75l4.02-1.31c.96-.56,2.15-.3,2.66.58Z"/>
      <path class="cls-2" d="M90.52,97.01c-1.42-3.97-3.17-9.1-4.24-12.98,2.86-3.03,3.85-6.9,2.16-9.74l-18.54,11.04c1.73,2.91,5.76,3.85,9.88,2.66,2.21,5.22,4.47,10.75,6.58,15.71h26.48v-6.69h-22.32Z"/>
      <path class="cls-2" d="M117.81,115c-1.52,0-2.63-1-2.63-2.22v-24.54c0-1.23,1.02-2.22,2.63-2.22,3.67,0,5.86,3.38,5.86,4.39v20.2c0,1.01-2.35,4.39-5.86,4.39Z"/>
    </g>
  </g>
</svg>