<?xml version="1.0" encoding="UTF-8"?>
<svg xmlns="http://www.w3.org/2000/svg" viewBox="0 0 143.42 143.78">
  <defs>
    <style>
      .cls-1 {
        fill: #fff;
        stroke: #58595b;
        stroke-miterlimit: 10;
        stroke-width: 2px;
      }

      .cls-2 {
        fill: #6d6e71;
        stroke-width: 0px;
      }
    </style>
  </defs>
  <g id="Layer_1" data-name="Layer 1">
    <rect class="cls-1" x=".81" y="1.31" width="141.73" height="141.73" rx="22.68" ry="22.68"/>
  </g>
  <g id="icon">
    <g>
      <path class="cls-2" d="M127.19,77.38l-23.71-1.28-19.74-20.92h-46.04l-6.07,18.36-15.86.11c-2.43-.12-4.47,1.82-4.47,4.25v15.41c0,2.35,1.91,4.26,4.26,4.26h10.62c.18-5.48,4.67-9.87,10.19-9.87s10.01,4.39,10.19,9.87h50.41c.18-5.48,4.67-9.87,10.19-9.87s10.01,4.39,10.19,9.87h9.62c2.35,0,4.26-1.91,4.26-4.26v-11.68c0-2.27-1.78-4.14-4.04-4.25ZM38.75,73.74l3.79-15.5h21.21l2.99,15.5h-27.99ZM70.15,73.74l-2.73-15.5h14.87l13.55,15.5h-25.69Z"/>
      <circle class="cls-2" cx="36.37" cy="97.91" r="7.55"/>
      <circle class="cls-2" cx="107.08" cy="97.91" r="7.55"/>
      <path class="cls-2" d="M68.74,49.53h2.44c.49,0,.88.39.88.88v5.14h-4.2v-5.14c0-.49.39-.88.88-.88Z"/>
    </g>
  </g>
</svg>