<?xml version="1.0" encoding="UTF-8"?>
<svg id="Layer_1" xmlns="http://www.w3.org/2000/svg" width="150" height="150" viewBox="0 0 143.74 143.78">
  <defs>
    <style>
      .cls-1 {
        fill: #6d6e71;
      }

      .cls-2 {
        fill: #fff;
        stroke: #58595b;
        stroke-miterlimit: 10;
        stroke-width: 2px;
      }
    </style>
  </defs>
  <rect class="cls-2" x="1" y="1.02" width="141.73" height="141.73" rx="22.68" ry="22.68"/>
  <rect class="cls-1" x="36.98" y="87.79" width="67.28" height="4.5" rx="2.25" ry="2.25"/>
  <polygon class="cls-1" points="19.42 126.7 122.11 126.7 122.11 98.72 95.09 98.72 95.09 105.55 68.08 105.55 68.08 112.38 41.06 112.38 41.06 119.54 19.42 119.54 19.42 126.7"/>
  <g>
    <path class="cls-1" d="M62.66,48.47c7.27-.05,14.51-.09,21.79-.14,3.1,7.15,11.6,27.15,11.6,27.15l-5.8,1.62-9.72-22.77h-23.43s-.37-5.01-.48-6.58c-.08-1.08-.15-2.17-.22-3.25-.11-1.56-.23-3.13-.34-4.69-.11-1.53-.21-3.07-.31-4.6-.1-1.46-.21-2.91-.31-4.37-.08-1.13-.16-2.26-.25-3.39-.12-1.67-.24-3.34-.37-5.02h6.05l.18,3.16c.24,4.26,1.52,21.51,1.63,22.88Z"/>
    <path class="cls-1" d="M61.34,84.43c-.56-.09-1.12-.18-1.69-.27-2.25-.37-4.39-1.05-6.43-2.06-3.05-1.51-5.67-3.56-7.83-6.19-2.51-3.05-4.18-6.5-4.95-10.38-.38-1.9-.54-3.81-.43-5.74.21-3.81,1.29-7.37,3.24-10.66,2.43-4.09,5.76-7.2,10.03-9.3.1-.05.2-.09.29-.14.03-.01.06,0,.17-.02.18,2.3.35,4.59.53,6.86-7.19,4.59-9.33,13.42-6.9,20.17,2.41,6.71,8.75,11.3,15.95,11.37,4.32.04,8.13-1.42,11.37-4.27,3.22-2.83,5.13-6.4,5.82-10.66.18.35.35.71.53,1.06,1.12,2.3,2.24,4.6,3.37,6.89.14.29.16.51,0,.81-3.11,5.66-7.76,9.47-13.88,11.49-1.49.49-3.02.81-4.59.95-.1,0-.21.05-.31.08h-4.29Z"/>
  </g>
  <g>
    <path class="cls-1" d="M38.5,94.59l-19.29,4.04c-1.15.24-1.89,1.37-1.65,2.52s1.37,1.89,2.52,1.65l39.17-8.22h-20.76Z"/>
    <path class="cls-1" d="M122.84,79.08c-.24-1.15-1.37-1.89-2.52-1.65l-38.5,8.07h20.76l18.61-3.9c1.15-.24,1.89-1.37,1.65-2.52Z"/>
  </g>
</svg>