<?xml version="1.0" encoding="UTF-8"?>
<svg xmlns="http://www.w3.org/2000/svg" viewBox="0 0 143.67 143.78">
  <defs>
    <style>
      .cls-1 {
        fill: #fff;
      }

      .cls-2 {
        stroke: #6d6e71;
        stroke-miterlimit: 10;
        stroke-width: 2px;
      }

      .cls-2, .cls-3 {
        fill: #6d6e71;
      }
    </style>
  </defs>
  <g id="Layer_1">
    <rect class="cls-2" x=".97" y="1.02" width="141.73" height="141.73" rx="22.68" ry="22.68"/>
  </g>
  <g id="icon">
    <rect class="cls-1" x="11.89" y="11.95" width="119.89" height="119.89" rx="14.13" ry="14.13"/>
    <g>
      <polygon class="cls-3" points="93.19 27.32 93.19 40.43 79.77 40.43 79.77 23.58 63.86 23.58 63.86 40.43 50.44 40.43 50.44 27.32 35.4 27.32 35.4 40.43 35.4 53.82 50.44 53.82 63.86 53.82 63.86 78.44 50.44 78.44 50.44 61.39 35.4 61.39 35.4 78.44 35.4 92.27 35.4 92.27 50.44 92.27 50.44 92.27 93.19 92.27 93.19 92.27 108.24 92.27 108.24 92.27 108.24 78.44 108.24 61.39 93.19 61.39 93.19 78.44 79.77 78.44 79.77 53.82 93.19 53.82 108.24 53.82 108.24 40.43 108.24 27.32 93.19 27.32"/>
      <path class="cls-3" d="M50.47,120.29h-15.07v-23.59h15.07v4.11h-10.3v5.53h9.65v4.11h-9.65v5.73h10.3v4.11Z"/>
      <path class="cls-3" d="M75.03,120.29h-5.46l-4.74-8.22-4.7,8.22h-5.46l7.59-12.09-7.11-11.5h5.43l4.26,7.62,4.29-7.62h5.39l-7.11,11.5,7.62,12.09Z"/>
      <path class="cls-3" d="M85.02,120.29h-4.77v-23.59h4.77v23.59Z"/>
      <path class="cls-3" d="M108.14,100.81h-6.39v19.48h-4.77v-19.48h-6.39v-4.11h17.55v4.11Z"/>
    </g>
  </g>
</svg>