<?xml version="1.0" encoding="UTF-8"?>
<svg xmlns="http://www.w3.org/2000/svg" viewBox="0 0 143.67 143.78">
  <defs>
    <style>
      .cls-1 {
        fill: #fff;
      }

      .cls-2 {
        stroke: #6d6e71;
        stroke-miterlimit: 10;
        stroke-width: 2px;
      }

      .cls-2, .cls-3 {
        fill: #6d6e71;
      }
    </style>
  </defs>
  <g id="Layer_1">
    <rect class="cls-2" x=".97" y="1.02" width="141.73" height="141.73" rx="22.68" ry="22.68"/>
  </g>
  <g id="icon">
    <g>
      <g>
        <path class="cls-1" d="M71.82,17.12c-18.43,0-48.47,9.55-48.47,9.55v100.07h96.94V26.67s-30.04-9.55-48.47-9.55Z"/>
        <rect class="cls-3" x="28.6" y="32.68" width="86.44" height="88.12"/>
        <rect class="cls-3" x="63.3" y="22.65" width="17.04" height="5.01"/>
      </g>
      <g>
        <path class="cls-1" d="M83.64,87.96v-.97c0-8.11,0-25.41,0-33.52q0-1.07,1.1-1.08c2.31,0,4.63,0,6.94,0q1.06,0,1.07,1.04c0,8.13,0,25.46,0,33.59,0,.25-.07.52.09.8.71-.42,1.29-.98,1.91-1.48,2.19-1.77,4.35-3.56,6.53-5.34.14-.12.28-.32.48-.24.21.09.13.33.13.51,0,2.62,0,5.25.01,7.87,0,.41-.18.66-.47.9-2.66,2.21-5.31,4.42-7.96,6.64-1.67,1.39-3.34,2.77-4.98,4.19-.36.31-.6.32-.96.02-3.77-3.11-7.56-6.2-11.34-9.29-.61-.5-1.21-1.01-1.84-1.48-.42-.31-.6-.67-.6-1.2.03-2.5.01-5.01.01-7.51,0-.1,0-.19,0-.29.04-.46.13-.52.51-.23.84.63,1.66,1.28,2.49,1.92,2.11,1.63,4.22,3.27,6.33,4.9.13.1.24.23.53.25Z"/>
        <path class="cls-1" d="M51.05,65.71c-3.06,2.44-6.08,4.85-9.1,7.25-.28-.2-.22-.43-.22-.63,0-2.57,0-5.15,0-7.72,0-.41.12-.72.45-.98,4.41-3.61,8.81-7.22,13.2-10.85.36-.3.57-.33.95-.01,4.26,3.59,8.54,7.17,12.83,10.74.4.33.59.68.58,1.22-.03,2.48-.01,4.96-.01,7.44,0,.07,0,.14,0,.21-.02.18.08.42-.14.51-.2.08-.34-.12-.48-.24-2.25-1.81-4.49-3.62-6.73-5.43-.64-.52-1.29-1.04-1.98-1.59-.16.3-.1.57-.1.81,0,8.06,0,25.31,0,33.37,0,1.26.09,1.16-1.16,1.16-2.36,0-4.72,0-7.08,0-.86,0-.87,0-.87-.88,0-8.08,0-25.36,0-33.44,0-.28.06-.56-.12-.93Z"/>
      </g>
    </g>
  </g>
</svg>