<?xml version="1.0" encoding="UTF-8"?>
<svg xmlns="http://www.w3.org/2000/svg" viewBox="0 0 143.85 143.78">
  <defs>
    <style>
      .cls-1 {
        fill: #fff;
      }

      .cls-2 {
        fill: #6d6e71;
        stroke: #6d6e71;
        stroke-miterlimit: 10;
        stroke-width: 2px;
      }
    </style>
  </defs>
  <g id="Layer_1">
    <rect class="cls-2" x="1.06" y="1.02" width="141.73" height="141.73" rx="22.68" ry="22.68"/>
  </g>
  <g id="icon">
    <g>
      <polygon class="cls-1" points="115.07 23.75 28.78 23.75 24.64 23.75 24.64 27.88 24.64 120.63 28.78 120.63 28.78 27.88 115.07 27.88 115.07 120.63 119.21 120.63 119.21 27.88 119.21 23.75 115.07 23.75"/>
      <path class="cls-1" d="M34.86,30.99v89.65l26.53-10.59v-62.89l-26.53-16.17ZM53.83,82.9c-1.31,0-2.37-2-2.37-4.47s1.06-4.47,2.37-4.47,2.37,2,2.37,4.47-1.06,4.47-2.37,4.47Z"/>
      <path class="cls-1" d="M108.99,30.99v89.65l-26.53-10.59v-62.89l26.53-16.17ZM90.01,82.9c1.31,0,2.37-2,2.37-4.47s-1.06-4.47-2.37-4.47-2.37,2-2.37,4.47,1.06,4.47,2.37,4.47Z"/>
    </g>
  </g>
</svg>