<?xml version="1.0" encoding="UTF-8"?>
<svg xmlns="http://www.w3.org/2000/svg" viewBox="0 0 143.74 143.78">
  <defs>
    <style>
      .cls-1 {
        fill: #fff;
      }

      .cls-2 {
        fill: #6d6e71;
        stroke: #6d6e71;
        stroke-miterlimit: 10;
        stroke-width: 2px;
      }
    </style>
  </defs>
  <g id="Layer_1">
    <rect class="cls-2" x="1" y="1.02" width="141.73" height="141.73" rx="22.68" ry="22.68"/>
  </g>
  <g id="icon">
    <path class="cls-1" d="M19.18,93.33c2.83-3.91,6.56-6.05,11.43-6.09,3.08-.02,6.15-.04,9.23,0,1.45.02,2.59-.43,3.62-1.46,4.28-4.31,40.38-39.89,44.86-44.42,3.3-3.33,7.31-4.9,11.93-4.93,5.7-.05,11.41.08,17.11-.04,6.63-.14,13.73,5.98,14.12,13.7.33,6.59-2.71,11.34-8.17,14.71-1.69,1.04-3.6,1.44-5.6,1.43-3.15-.01-6.31.1-9.45-.04-2.19-.09-3.81.6-5.37,2.17-13.92,13.97-27.95,27.84-41.88,41.81-1.91,1.91-4,3.66-6.38,4.96-1.2.65-2.47,1.21-3.78,1.59-1.5.43-21.08.48-22.76.18-3.18-.57-6.17-2.85-8.2-5.27-1.68-2.01-3.34-6.35-3.34-9.5s1.36-7.07,2.62-8.81ZM39.15,109.22s0,0,0,0c2.25,0,4.5,0,6.75,0,3.38,0,6.24-1.11,8.67-3.55,14.46-14.48,29.03-28.85,43.4-43.42,3.01-3.05,6.32-4.31,10.42-4.21,2.85.07,5.7.05,8.55,0,4.71-.07,7.74-4.88,5.96-9.25-1.27-3.12-3.62-4.48-6.83-4.51-4.8-.05-9.6-.04-14.4,0-3.58.03-6.52,1.18-9.18,3.87-14.54,14.72-29.28,29.24-43.87,43.9-2.34,2.35-4.97,3.46-8.23,3.4-3.37-.05-6.75-.08-10.12.02-3.46.1-5.88,2.65-5.95,6.08-.09,4.32,2.94,7.49,7.4,7.66,2.47.09,4.95.02,7.42.02Z"/>
  </g>
</svg>