<?xml version="1.0" encoding="UTF-8"?>
<svg xmlns="http://www.w3.org/2000/svg" viewBox="0 0 143.93 143.72">
  <defs>
    <style>
      .cls-1 {
        fill: #fff;
      }

      .cls-2 {
        fill: #6d6e71;
        stroke: #6d6e71;
        stroke-miterlimit: 10;
        stroke-width: 2px;
      }
    </style>
  </defs>
  <g id="Layer_1">
    <rect class="cls-2" x="1.1" y="1" width="141.73" height="141.73" rx="22.68" ry="22.68"/>
  </g>
  <g id="icon">
    <path class="cls-1" d="M21.15,73.96c-.21-28.2,23.18-51.55,51.79-51.26,27.44.28,51.02,22.78,50.7,51.9-.31,27.86-22.94,50.87-51.79,50.63-28.29-.23-50.88-23.46-50.7-51.27ZM78.58,62.07c-.4.02-.92-.02-1.44.07-1.64.28-3.29.53-4.94.79-3.44.54-6.87,1.07-10.31,1.61-1.05.16-1.04.18-1.24,1.21,0,.02,0,.05-.01.07-.11.6-.11.6.49.55.91-.06,1.81-.04,2.69.25,1.25.41,2.1,1.44,2.04,2.55-.04.69-.11,1.37-.28,2.05-.52,2.18-1.25,4.3-1.93,6.44-1.23,3.86-2.47,7.72-3.7,11.59-.81,2.54-1.63,5.09-2.42,7.64-.43,1.37-.78,2.75-.76,4.2.04,2.66,1.77,4.86,4.36,5.52,1.56.39,3.12.36,4.67,0,2.33-.53,4.24-1.82,5.97-3.39,2.53-2.3,4.45-5.09,6.19-8.01.68-1.14.64-1.24-.54-1.85-.26-.14-.38-.09-.51.15-.15.27-.31.54-.48.8-1.22,1.85-2.44,3.7-4.08,5.23-.37.35-.77.63-1.25.82-.47.18-.88.1-1.27-.21-.51-.41-.73-.94-.61-1.58.11-.59.23-1.17.39-1.74,1.11-3.97,2.43-7.88,3.63-11.83,1.16-3.83,2.38-7.65,3.58-11.47.83-2.64,1.65-5.28,2.48-7.92.31-.98.62-1.95.92-2.93.16-.52.12-.56-.43-.58-.36-.01-.72,0-1.2,0ZM83.53,47.25c.29-3.62-3.26-6.9-6.79-6.89-3.33,0-6.92,2.78-6.9,6.92.02,4.02,3.39,6.84,6.82,6.87,3.81.03,7.13-3.32,6.87-6.9Z"/>
  </g>
</svg>