<?xml version="1.0" encoding="UTF-8"?>
<svg xmlns="http://www.w3.org/2000/svg" viewBox="0 0 143.42 143.78">
  <defs>
    <style>
      .cls-1 {
        fill: #fff;
      }

      .cls-2 {
        fill: #6d6e71;
        stroke: #6d6e71;
        stroke-miterlimit: 10;
        stroke-width: 2px;
      }
    </style>
  </defs>
  <g id="Layer_2">
    <rect class="cls-2" x=".84" y="1.1" width="141.73" height="141.73" rx="22.68" ry="22.68"/>
  </g>
  <g id="icon">
    <g>
      <path class="cls-1" d="M24.02,101.3s5.85-21.2,7.24-26.04c.53-1.86.79-3.75.77-5.71-.07-6.56-.05-13.12-.01-19.68.04-6.05,3.57-9.51,9.66-9.56,2.72-.02,5.57.61,7.58,2.55,1.37,1.32,2.2,3.13,2.5,4.99.45,3.05-.34,5.04-.34,5.04,0,0-2.56-3.81-3.84-5.72-1.03-1.52-2.28-2.74-4.12-3.19-5.38-1.32-9.89,4.62-7.04,9.38,2.64,4.42,5.63,8.64,8.51,12.91,1.16,1.72,3.03,2.34,4.92,2.81,1.42.36,1.91,1.08,2.14,2.64.78,5.31,7.37,29.57,7.37,29.57h-12.13s0,13.8-.01,20.04c0,.86.05,1.73-.07,2.58-.32,2.17-2.46,3.61-5.25,3.61s-4.99-1.44-5.12-3.7c-.18-3.22-.09-6.45-.1-9.67-.01-3.87-.01-12.86-.01-12.86h-12.62Z"/>
      <path class="cls-1" d="M41.76,46.25c1.69-.1,2.84.75,3.73,2.08,1.78,2.68,3.64,5.31,5.31,8.06,1.12,1.83,2.51,2.97,4.64,3.58,3.29.98,8.96,1.83,10.91,2.45,1.17.37,2.2.88,2.88,1.91,1.6,2.45.06,5.72-2.85,6.07-.42.05-1.58-.11-2.96-.41s-8-1.65-15.03-3.93c-.83-.27-1.43-.95-1.91-1.67-2.61-3.93-5.3-7.81-7.79-11.82-1.81-2.92-.11-6.22,3.08-6.33Z"/>
      <path class="cls-1" d="M32.68,29.04c-.02-5.24,4.05-9.27,9.35-9.24,5.06.03,9.16,4.13,9.17,9.17.02,5.1-4.35,9.44-9.4,9.34-5.03-.09-9.1-4.24-9.12-9.28Z"/>
      <path class="cls-1" d="M87.12,62.27c.36-.13.71-.1,1.04-.1,1.73,0,3.45,0,5.18,0,.76,0,.81-.06.48-.75-.73-1.51-2.17-4.3-2.76-5.35-1.17-2.08.08-4.9,2.7-5.3,1.36-.21,2.87.55,3.6,1.89,1,1.84,5.26,9.53,6.6,12.89.16.41.29.84.46,1.25,1.27,3.15-1.26,7.11-4.81,7.67-.64.1-1.3.14-1.95.14-5.36,0-10.73-.01-16.09,0-.79,0-1.58-.01-2.35-.15-3.85-.68-6.24-4.75-4.64-8.33.81-1.81,1.92-3.41,3.15-4.95.49-.61.98-1.23,1.51-1.81.28-.3.26-.49,0-.78-1.03-1.15-2.03-2.33-3.04-3.49-1.6-1.83-1.31-4.46.63-5.87,1.55-1.12,3.66-.97,5.01.44,1.03,1.07,1.98,2.23,2.96,3.35.86.98,1.67,2.02,2.58,2.95,1.74,1.78,1.8,4.28,0,6-.09.09-.17.19-.25.29Z"/>
      <path class="cls-1" d="M116.89,62.51c.07,3.41-2.92,6.12-6.18,6.12-3.02,0-6.16-2.46-6.15-6.18.01-3.78,3.01-6.21,6.21-6.19,3.71.03,6.25,3.11,6.12,6.25Z"/>
      <path class="cls-1" d="M117.89,78.56h-54.43c-2.28,0-4.13,1.85-4.13,4.13v.67c0,2.28,1.85,4.13,4.13,4.13h5.95v36.94c0,1.4,1.14,2.54,2.54,2.54h37.46c1.4,0,2.54-1.14,2.54-2.54v-36.94h5.95c2.28,0,4.13-1.85,4.13-4.13v-.67c0-2.28-1.85-4.13-4.13-4.13Z"/>
    </g>
  </g>
</svg>