<?xml version="1.0" encoding="UTF-8"?>
<svg xmlns="http://www.w3.org/2000/svg" viewBox="0 0 143.74 143.78">
  <defs>
    <style>
      .cls-1 {
        fill: #fff;
      }

      .cls-2 {
        fill: #6d6e71;
        stroke: #6d6e71;
        stroke-miterlimit: 10;
        stroke-width: 2px;
      }
    </style>
  </defs>
  <g id="Layer_1">
    <rect class="cls-2" x="1" y="1.02" width="141.73" height="141.73" rx="22.68" ry="22.68"/>
  </g>
  <g id="icon">
    <g>
      <path class="cls-1" d="M110.83,77.55c9.61.05,17.7,8.2,17.72,17.8.02,7.05-3.12,12.33-9.05,15.97-2.57,1.57-5.44,2.39-8.46,2.39-26.12.02-52.25.08-78.37-.04-6.16-.03-11.07-2.97-14.52-8.12-4.76-7.11-3.7-16.89,2.46-22.83,2.14-2.06,4.63-3.51,7.51-4.4,2.04-.63,4.08-.73,6.16-.75,1.09,0,71.95-.04,76.53-.02ZM71.8,107.89c12.92,0,25.84-.01,38.76.01,2.22,0,4.29-.52,6.15-1.66,3.94-2.42,6.01-5.92,6.01-10.62,0-4.43-1.91-7.78-5.49-10.26-2.3-1.59-4.92-1.99-7.66-1.99-9.49.03-18.97.02-28.46.02-13.39,0-26.78-.03-40.17,0-3.21,0-6.43-.24-9.63.18-6.12.81-10.78,6.67-10.34,12.8.5,6.97,6.48,11.62,12.53,11.56,12.76-.14,25.53-.04,38.3-.04Z"/>
      <path class="cls-1" d="M71.92,124.25c-17.67,0-35.33,0-53,0-1.47,0-2.69-.39-3.29-1.81-.79-1.86.46-3.81,2.5-4.01.34-.03.69-.02,1.03-.02,35.14,0,70.29,0,105.43,0,.41,0,.82-.02,1.22.03,1.57.19,2.59,1.38,2.55,2.94-.04,1.53-1.16,2.72-2.69,2.84-.31.03-.62.01-.94.01-17.6,0-35.21,0-52.81,0Z"/>
      <g>
        <path class="cls-1" d="M80.59,48.77c.78.03,1.55-.05,2.33.08,1.54.27,3.87.32,4.72,1.84.23.41.45.83.6,1.28.3.92.28,1.9.24,2.85-.04.88-.03,4.45-.03,5.37v13.56c0,.08,0,1.59,0,1.59l-13.88.02s.27-12.41-.08-12.49c-.36-.09-.54.36-.76.61-.98,1.13-1.94,2.28-2.92,3.41-.65.75-1.45,1.24-2.45,1.43-3.22.6-4.96.8-8.19,1.36-1.98.39-4.19-.19-4.77-3.26-.31-2.1,1.69-3.68,3.96-4.2,1.7-.31,4.47-.92,6.38-1.52.63-.1.98-.49,1.3-.97,2.02-2.93,4.1-5.81,6.03-8.8.85-1.32,2.02-1.83,3.42-1.95,1.36-.12,2.73-.35,4.11-.21Z"/>
        <path class="cls-1" d="M88.52,37.8c0,4.48-3.58,8.09-8.06,8.12-4.42.02-8.09-3.65-8.09-8.11,0-4.37,3.67-8,8.08-7.99,4.48,0,8.06,3.56,8.07,7.99Z"/>
        <polygon class="cls-1" points="86.29 105.79 76.74 105.79 75.58 85.86 87.45 85.86 86.29 105.79"/>
      </g>
    </g>
  </g>
</svg>