<?xml version="1.0" encoding="UTF-8"?>
<svg xmlns="http://www.w3.org/2000/svg" viewBox="0 0 143.67 143.78">
  <defs>
    <style>
      .cls-1 {
        fill: #fff;
      }

      .cls-2 {
        stroke-linecap: round;
        stroke-linejoin: round;
        stroke-width: 5px;
      }

      .cls-2, .cls-3 {
        stroke: #6d6e71;
      }

      .cls-2, .cls-3, .cls-4 {
        fill: #6d6e71;
      }

      .cls-3 {
        stroke-miterlimit: 10;
        stroke-width: 2px;
      }

      .cls-4 {
        font-family: Montserrat-Bold, Montserrat;
        font-size: 82.02px;
        font-weight: 700;
      }
    </style>
  </defs>
  <g id="Layer_1">
    <rect class="cls-3" x=".97" y="1.02" width="141.73" height="141.73" rx="22.68" ry="22.68"/>
  </g>
  <g id="icon">
    <g>
      <rect class="cls-1" x="15.62" y="15.72" width="81.16" height="81.16" rx="9.2" ry="9.2"/>
      <text class="cls-4" transform="translate(29.08 85.46)"><tspan x="0" y="0">P</tspan></text>
      <path class="cls-2" d="M127.85,99.32c-.04-1.04-.38-1.41-1.44-1.46-.94-.04-2.82-.03-2.82-.03,0,0-1.92.11-2.27,1.31-.18.33-.27.79-.74.87-.24-.23-.3-.49-.37-.74-.66-2.31-1.56-4.53-2.57-6.7-.44-.95-.93-1.89-1.5-2.76-1.02-1.55-2.66-2.13-4.39-2.49-3.1-.65-8.51-.74-11.67-.71-.2,0-.79,0-.99,0-3.16-.03-8.56.07-11.67.71-1.72.36-3.36.94-4.39,2.49-.57.87-1.06,1.81-1.5,2.76-1.01,2.17-1.91,4.39-2.57,6.7-.07.25-.13.51-.37.74-.47-.08-.56-.54-.74-.87-.35-1.2-2.27-1.31-2.27-1.31,0,0-1.88-.01-2.82.03-1.05.05-1.4.42-1.44,1.46-.02.52-.02,1.05,0,1.57.04,1.12.46,1.53,1.61,1.55,1.46.02,2.93,0,4.54,0-.35.42-.61.75-.88,1.08-1.89,2.3-3.06,4.85-3.03,7.89,0,.85.02,1.71.05,2.56,0,.03,0,.06,0,.08.05,1.17.16,2.34.42,3.5.26,1.18.64,2.31,1.19,3.38.39.77.95,1.39,1.66,1.84.24.17.5.32.78.46.02,0,.03.02.05.03.28.24.39.55.37,1-.04,1.05-.03,2.1,0,3.15.02,1.33.68,1.99,2.02,2.01.38,0,.77,0,1.15,0,.18,0,.36,0,.53,0,.34,0,.68,0,1.02,0,.1,0,.19,0,.28-.01,1.34-.08,1.89-.69,1.91-2.1.01-.82,0-1.65,0-2.53.02-.05.06-.11.1-.21.04,0,.07,0,.11,0,4.77.26,9.55.38,14.37.37,4.81,0,9.59-.12,14.37-.37.04,0,.07,0,.11,0,.04.1.08.16.1.21,0,.88-.01,1.7,0,2.53.02,1.41.57,2.02,1.91,2.1.09,0,.19,0,.28.01.34,0,.68,0,1.02,0,.18,0,.36,0,.53,0,.38,0,.77,0,1.15,0,1.33-.02,2-.68,2.02-2.01.02-1.05.03-2.1,0-3.15-.02-.45.09-.76.37-1,.02,0,.03-.02.05-.03.29-.14.55-.29.78-.46.71-.44,1.26-1.07,1.66-1.84.55-1.07.93-2.2,1.19-3.38.26-1.16.36-2.33.42-3.5,0-.03,0-.05,0-.08.04-.85.04-1.7.05-2.56.03-3.04-1.14-5.59-3.03-7.89-.27-.33-.54-.66-.88-1.08,1.61,0,3.08.02,4.54,0,1.15-.02,1.57-.43,1.61-1.55.02-.52.01-1.05,0-1.57Z"/>
      <path class="cls-1" d="M127.85,99.32c-.04-1.04-.38-1.41-1.44-1.46-.94-.04-2.82-.03-2.82-.03,0,0-1.92.11-2.27,1.31-.18.33-.27.79-.74.87-.24-.23-.3-.49-.37-.74-.66-2.31-1.56-4.53-2.57-6.7-.44-.95-.93-1.89-1.5-2.76-1.02-1.55-2.66-2.13-4.39-2.49-3.1-.65-8.51-.74-11.67-.71-.2,0-.79,0-.99,0-3.16-.03-8.56.07-11.67.71-1.72.36-3.36.94-4.39,2.49-.57.87-1.06,1.81-1.5,2.76-1.01,2.17-1.91,4.39-2.57,6.7-.07.25-.13.51-.37.74-.47-.08-.56-.54-.74-.87-.35-1.2-2.27-1.31-2.27-1.31,0,0-1.88-.01-2.82.03-1.05.05-1.4.42-1.44,1.46-.02.52-.02,1.05,0,1.57.04,1.12.46,1.53,1.61,1.55,1.46.02,2.93,0,4.54,0-.35.42-.61.75-.88,1.08-1.89,2.3-3.06,4.85-3.03,7.89,0,.85.02,1.71.05,2.56,0,.03,0,.06,0,.08.05,1.17.16,2.34.42,3.5.26,1.18.64,2.31,1.19,3.38.39.77.95,1.39,1.66,1.84.24.17.5.32.78.46.02,0,.03.02.05.03.28.24.39.55.37,1-.04,1.05-.03,2.1,0,3.15.02,1.33.68,1.99,2.02,2.01.38,0,.77,0,1.15,0,.18,0,.36,0,.53,0,.34,0,.68,0,1.02,0,.1,0,.19,0,.28-.01,1.34-.08,1.89-.69,1.91-2.1.01-.82,0-1.65,0-2.53.02-.05.06-.11.1-.21.04,0,.07,0,.11,0,4.77.26,9.55.38,14.37.37,4.81,0,9.59-.12,14.37-.37.04,0,.07,0,.11,0,.04.1.08.16.1.21,0,.88-.01,1.7,0,2.53.02,1.41.57,2.02,1.91,2.1.09,0,.19,0,.28.01.34,0,.68,0,1.02,0,.18,0,.36,0,.53,0,.38,0,.77,0,1.15,0,1.33-.02,2-.68,2.02-2.01.02-1.05.03-2.1,0-3.15-.02-.45.09-.76.37-1,.02,0,.03-.02.05-.03.29-.14.55-.29.78-.46.71-.44,1.26-1.07,1.66-1.84.55-1.07.93-2.2,1.19-3.38.26-1.16.36-2.33.42-3.5,0-.03,0-.05,0-.08.04-.85.04-1.7.05-2.56.03-3.04-1.14-5.59-3.03-7.89-.27-.33-.54-.66-.88-1.08,1.61,0,3.08.02,4.54,0,1.15-.02,1.57-.43,1.61-1.55.02-.52.01-1.05,0-1.57ZM83.52,98.03c.58-1.98,1.5-3.83,2.5-5.64.23-.42.55-.65,1.03-.79,3.02-.87,8.37-1.14,11.49-1.13.52,0,1.6,0,2.12,0,3.13,0,8.47.26,11.49,1.13.47.14.79.37,1.03.79,1,1.81,1.92,3.65,2.5,5.64.29.98.73,1.94.77,3.06-1.13-.12-2.17-.21-3.2-.34-3.95-.49-7.92-.7-11.9-.67-.67,0-2.81,0-3.48,0-3.98-.03-7.95.17-11.9.67-1.03.13-2.07.22-3.2.34.04-1.12.48-2.08.77-3.06ZM86.44,113.57c-1.2.03-2.4,0-3.6,0h0c-.25,0-.5,0-.76,0-.32,0-.65,0-.97,0-.53,0-1.05,0-1.58-.02-1.02-.03-1.25-.28-1.27-1.27-.01-.71,0-1.42,0-2.13,0-.52.22-.83.65-.93.14-.02.3-.03.49-.03,1.36-.02,2.73,0,4.09,0,.54,0,1.09,0,1.63,0,.84.11,1.39.59,1.75,1.4.28.62.46,1.27.51,1.94.05.8-.13,1-.94,1.02ZM107.17,110.53c-.43,1.42-.87,2.85-1.32,4.26-.11.34-.22.58-.39.74,0,0,0,0-.01.01-.02.02-.04.03-.06.05-.04.03-.08.06-.13.08-.02,0-.04.02-.06.03-.02,0-.04.01-.05.02-.18.07-.4.1-.69.1-.66,0-1.31,0-1.97,0-.97,0-1.93,0-2.9,0-.97,0-1.93,0-2.9,0-.66,0-1.31,0-1.97,0-.29,0-.51-.03-.69-.1-.02,0-.04-.01-.05-.02-.02,0-.04-.02-.06-.03-.04-.02-.09-.05-.13-.08-.02-.02-.04-.03-.06-.05,0,0,0,0-.01-.01-.16-.16-.28-.4-.39-.74-.45-1.42-.89-2.84-1.32-4.26-.08-.31-.12-.55-.12-.73.04-.38.31-.55.89-.59.03,0,.05,0,.08,0,0,0,.02,0,.03,0,.06,0,.13,0,.2,0,2.14,0,4.28,0,6.42,0h0s.05,0,.08,0,.05,0,.08,0h0c2.14,0,4.28,0,6.42,0,.07,0,.13,0,.2,0,0,0,.02,0,.03,0,.03,0,.05,0,.08,0,.58.04.85.21.89.59,0,.19-.04.43-.12.73ZM120.94,112.3c-.02,1-.25,1.24-1.27,1.27-.53.01-1.05.02-1.58.02-.32,0-.65,0-.97,0-.25,0-.5,0-.76,0h0c-1.2,0-2.4.01-3.6-.01-.82-.02-1-.22-.94-1.02.05-.67.23-1.32.51-1.94.36-.81.91-1.29,1.75-1.4.54,0,1.09,0,1.63,0,1.36,0,2.73-.01,4.09,0,.19,0,.35.01.49.03.43.1.65.41.65.93,0,.71.02,1.42,0,2.13Z"/>
    </g>
  </g>
</svg>