<?xml version="1.0" encoding="UTF-8"?>
<svg xmlns="http://www.w3.org/2000/svg" viewBox="0 0 143.67 143.78">
  <defs>
    <style>
      .cls-1 {
        fill: #fff;
      }

      .cls-2 {
        stroke: #6d6e71;
        stroke-miterlimit: 10;
        stroke-width: 2px;
      }

      .cls-2, .cls-3 {
        fill: #6d6e71;
      }
    </style>
  </defs>
  <g id="Layer_1">
    <rect class="cls-2" x=".97" y="1.02" width="141.73" height="141.73" rx="22.68" ry="22.68"/>
  </g>
  <g id="icon">
    <g>
      <path class="cls-1" d="M121.75,67.58s-.07,32.5,0,36.8c.03,2.12-1.07,3.55-2.95,4.26-3.5,1.33-17.07,6.63-20.37,7.92-2.61,1.02-12.11,4.71-14.24,5.55-1.78.71-14.05,5.54-15.87,6.2-.98.35-1.89.89-2.93,1.1-1.23.25-2.36,0-3.32-.75-1.07-.84-34.41-23.86-37.34-25.9-.48-.33-1.04-.55-1.47-.96-.82-.76-1.34-1.62-1.32-2.8.04-3.3.02-17.23.01-24.88,0-2.59,1.56-4.14,4.16-4.23,1.53-.06,34.18-2.29,38.94-2.29s8.7-.01,13.05-.01h43.66ZM62.74,124.86c.26-.38.17-.69.17-.99,0-14.88,0-46.81,0-51.88,0-.82-.81-.83-.81-.83.16-.01-6.08.49-8.4.5-.93,0-1.03.14-1.03,1.09,0,17.41,0,26.87-.01,44.28,0,.67.22,1.09.76,1.46,1.48,1,2.92,2.04,4.4,3.05,1.62,1.11,3.25,2.19,4.92,3.31ZM77.66,120.74c.27.09.49,0,.7-.08,1.26-.49,2.51-.99,3.76-1.49,1.42-.56,2.84-1.14,4.28-1.65,1.09-.39,1.13-.39,1.13-1.57,0-12.97,0-17.98,0-30.95,0-4.37,0-8.75,0-13.12,0-.84-.02-.86-.86-.86-1.64,0-3.27,0-4.91,0-.97,0-1.94.02-2.92,0-.49-.01-.71.18-.68.67.05.67-.1,1.32-.11,1.99-.05,9.28-.46,44.99-.47,46.8,0,.09.05.19.08.27ZM66.34,125.21c.27.09.39-.09.55-.15,2.19-.83,4.38-1.68,6.57-2.51.36-.14.54-.35.56-.73.03-.84.11-1.68.11-2.53.02-6.75.22-40.68.47-47.46.03-.8-.02-.82-.81-.82-2.02,0-4.04,0-6.06,0-1.45,0-1.38-.18-1.38,1.35,0,19.87,0,31.79,0,51.67v1.18ZM91.25,115.58c1.04-.37,2.08-.76,3.11-1.19,1.05-.43,2.11-.83,3.17-1.23.75-.28,1.86-.37,2.24-1.19.14-.3.14-.64.14-.97,0-7.06,0-14.11,0-21.17,0-4.37,0-8.75,0-13.12,0-1.63,0-3.26,0-4.9,0-.63-.17-.8-.83-.8-2.4,0-4.81,0-7.21,0-.78,0-.79.02-.79.84,0,16.98,0,26,0,42.98,0,.24-.08.51.17.74ZM48.92,115.33c.2-.2.19-.36.19-.51,0-1.36,0-2.71,0-4.07,0-15.22,0-22.48,0-37.69,0-.98,0-.97-.95-.99-2.2-.03-4.38.4-6.58.36-.77-.01-.86.16-.86.93,0,3.4,0,24.29-.01,35.31,0,.68.18,1.13.78,1.51,1.22.78,2.38,1.67,3.57,2.5,1.27.88,2.56,1.75,3.86,2.64ZM103.51,110.65s.03.02.05.03c.14.08.32.02.47-.04,1.48-.59,2.96-1.18,4.44-1.78.24-.09.48-.19.66-.38.26-.26.33-.65.34-1.02.06-5.17,0-10.36,0-15.54,0-5.36,0-10.71,0-16.07,0-1.31,0-2.63,0-3.94,0-.89-.01-.9-.9-.91-1.43,0-2.86,0-4.29,0-.92,0-.93,0-.93.94,0,6.86,0,13.72,0,20.58,0,5.87.02,11.74,0,17.61,0,.18.02.4.15.51ZM37.11,72.86c-1.58-.11-3.05.11-4.53.16-.87.03-.88.03-.88.91,0,5.52,0,21.94-.01,28.61,0,.6.18.99.69,1.33,1.21.8,2.36,1.7,3.57,2.5.34.22.63.6,1.15.6v-34.11ZM113.13,106.96c.35.01.63-.11.91-.22.99-.4,1.98-.81,2.99-1.18,1.14-.41,1.17-.42,1.16-1.63-.04-10.56-.31-29.35-.27-32.16.01-.7-.05-.75-.73-.76-1.02-.01-2.05,0-3.07,0-1.07,0-1.08,0-1.08,1.05,0,13.99-.02,20.02-.02,34.02,0,.28-.06.56.12.88ZM28.07,100.84c.07-.03.13-.05.2-.08v-27.38c-.79-.22-1.51.08-2.24.07-.51,0-.69.27-.69.79.02,3.55.02,20.56.02,24.09,0,.3-.05.63.25.84.82.56,1.64,1.11,2.46,1.67Z"/>
      <g>
        <polygon class="cls-1" points="114.68 65.8 117.68 65.8 117.68 32.72 99.26 24.65 59.92 33.34 59.92 66.23 62.92 66.01 62.92 35.85 98.89 27.77 114.68 34.68 114.68 65.8"/>
        <rect class="cls-1" x="97.57" y="27.66" width="3" height="38.13"/>
      </g>
      <polygon class="cls-1" points="64.44 69.92 119.65 69.31 119.65 105.67 65.25 127.16 64.44 69.92"/>
      <polygon class="cls-1" points="99.07 26.24 116.41 33.72 116.41 65.8 99.07 65.8 99.07 26.24"/>
      <polygon class="cls-3" points="25.34 73.5 25.34 98.98 63.29 125.24 63.29 70.76 25.34 73.5"/>
    </g>
  </g>
</svg>