<?xml version="1.0" encoding="UTF-8"?>
<svg xmlns="http://www.w3.org/2000/svg" viewBox="0 0 143.75 143.78">
  <defs>
    <style>
      .cls-1 {
        fill: #fff;
      }

      .cls-2 {
        fill: #6d6e71;
        stroke: #6d6e71;
        stroke-miterlimit: 10;
        stroke-width: 2px;
      }
    </style>
  </defs>
  <g id="Layer_1">
    <rect class="cls-2" x="1.01" y="1.02" width="141.73" height="141.73" rx="22.68" ry="22.68"/>
  </g>
  <g id="icon">
    <g>
      <path class="cls-1" d="M51.63,52.95c.1-6.05,5.11-10.97,11.14-11.09,6.27-.13,12.54-.13,18.8.01,5.28.12,10.48,4.94,10.57,10.01.18,9.73.09,19.46.05,29.19,0,2.26-1.2,3.3-3.41,3.33-2.36.02-3.45-1.02-3.55-3.44-.05-1.15-.01-2.31-.01-3.46,0-7.09.02-15.89-.01-22.98,0-3.55-1.92-3.95-1.92-3.95l-.02,3.11s0,44.03-.01,66.05c0,1.15.1,2.3-.32,3.42-.77,2.03-2.04,2.91-4.14,2.81-2.05-.1-3.32-1.15-3.76-3.27-.18-.88-.18-1.8-.18-2.7-.01-9.73,0-19.46-.01-29.19,0-.42,0-.84-.02-1.26h-.04c-.09-1.4-1.24-2.51-2.67-2.51s-2.69,1.2-2.69,2.69c0,.07,0,.48,0,.63,0,9.98,0,19.95,0,29.93,0,.82.03,1.66-.11,2.47-.35,1.94-1.81,3.12-3.83,3.22-2.06.1-3.27-.7-3.98-2.6-.51-1.35-.49-2.74-.49-4.15,0-21.77,0-65.3,0-65.3v-3.37s-2.12,1.51-2.01,4c0,8.66.02,17.32-.02,25.97-.01,2.44-1.51,3.88-3.82,3.91-2.33.03-3.55-1.13-3.56-3.74-.05-9.23-.13-18.47.02-27.7Z"/>
      <circle class="cls-1" cx="72.19" cy="29.06" r="9.26"/>
    </g>
  </g>
</svg>