<?xml version="1.0" encoding="UTF-8"?>
<svg xmlns="http://www.w3.org/2000/svg" viewBox="0 0 143.93 143.78">
  <defs>
    <style>
      .cls-1 {
        fill: #fff;
      }

      .cls-2 {
        fill: #6d6e71;
        stroke: #6d6e71;
        stroke-miterlimit: 10;
        stroke-width: 2px;
      }
    </style>
  </defs>
  <g id="Layer_1">
    <rect class="cls-2" x="1.1" y="1.02" width="141.73" height="141.73" rx="22.68" ry="22.68"/>
  </g>
  <g id="icon">
    <g>
      <path class="cls-1" d="M117.74,91.69c-2.61-.44-4.73-2.04-6.88-3.47-5.1-3.39-10.06-3.01-14.99.33-.87.59-1.74,1.18-2.64,1.72-3.75,2.24-7.45,2.07-11.11-.24-1.46-.92-2.86-1.93-4.39-2.72-4.06-2.1-8.1-1.95-12.03.4-1.48.88-2.89,1.87-4.39,2.73-3.59,2.06-7.14,1.78-10.62-.31-1.56-.94-3.03-2.02-4.65-2.85-4.06-2.09-8.12-2.01-12,.47-2.67,1.7-5.24,3.56-8.44,4.15v6.1c3.2-.59,5.78-2.45,8.44-4.15,3.88-2.48,7.94-2.56,12-.47,1.61.83,3.09,1.92,4.65,2.85,3.48,2.09,7.03,2.36,10.62.31,1.49-.86,2.91-1.84,4.39-2.73,3.93-2.35,7.97-2.5,12.03-.4,1.52.79,2.93,1.8,4.39,2.72,3.66,2.31,7.36,2.48,11.11.24.9-.54,1.77-1.13,2.64-1.72,4.93-3.34,9.89-3.72,14.99-.33,2.15,1.43,4.26,3.03,6.88,3.47v-6.1Z"/>
      <path class="cls-1" d="M117.74,101.64c-2.61-.44-4.73-2.04-6.88-3.47-5.1-3.39-10.06-3.01-14.99.33-.87.59-1.74,1.18-2.64,1.72-3.75,2.24-7.45,2.07-11.11-.24-1.46-.92-2.86-1.93-4.39-2.72-4.06-2.1-8.1-1.95-12.03.4-1.48.88-2.89,1.87-4.39,2.73-3.59,2.06-7.14,1.78-10.62-.31-1.56-.94-3.03-2.02-4.65-2.85-4.06-2.09-8.12-2.01-12,.47-2.67,1.7-5.24,3.56-8.44,4.15v6.1c3.2-.59,5.78-2.45,8.44-4.15,3.88-2.48,7.94-2.56,12-.47,1.61.83,3.09,1.92,4.65,2.85,3.48,2.09,7.03,2.36,10.62.31,1.49-.86,2.91-1.84,4.39-2.73,3.93-2.35,7.97-2.5,12.03-.4,1.52.79,2.93,1.8,4.39,2.72,3.66,2.31,7.36,2.48,11.11.24.9-.54,1.77-1.13,2.64-1.72,4.93-3.34,9.89-3.72,14.99-.33,2.15,1.43,4.26,3.03,6.88,3.47v-6.1Z"/>
      <path class="cls-1" d="M117.74,111.6c-2.61-.44-4.73-2.04-6.88-3.47-5.1-3.39-10.06-3.01-14.99.33-.87.59-1.74,1.18-2.64,1.72-3.75,2.24-7.45,2.07-11.11-.24-1.46-.92-2.86-1.93-4.39-2.72-4.06-2.1-8.1-1.95-12.03.4-1.48.88-2.89,1.87-4.39,2.73-3.59,2.06-7.14,1.78-10.62-.31-1.56-.94-3.03-2.02-4.65-2.85-4.06-2.09-8.12-2.01-12,.47-2.67,1.7-5.24,3.56-8.44,4.15v6.1c3.2-.59,5.78-2.45,8.44-4.15,3.88-2.48,7.94-2.56,12-.47,1.61.83,3.09,1.92,4.65,2.85,3.48,2.09,7.03,2.36,10.62.31,1.49-.86,2.91-1.84,4.39-2.73,3.93-2.35,7.97-2.5,12.03-.4,1.52.79,2.93,1.8,4.39,2.72,3.66,2.31,7.36,2.48,11.11.24.9-.54,1.77-1.13,2.64-1.72,4.93-3.34,9.89-3.72,14.99-.33,2.15,1.43,4.26,3.03,6.88,3.47v-6.1Z"/>
      <path class="cls-1" d="M38.62,82.05c1.01.56,1.99.29,2.93.36,3.45.27,6.45,1.62,9.23,3.61,4.06,2.9,6.67,3.05,10.77.15,4.37-3.08,8.98-4.57,14.32-3.32,2.38.56,4.51,1.66,6.41,3.11,3.82,2.92,7.47,2.81,11.3,0,3.55-2.6,4.26-1.9.55-5.58-4.35-4.32-8.68-8.65-13-13.01-1.81-1.82-1.79-1.86-.07-3.64,1.27-1.31,2.77-2.44,3.81-3.89,1.81-2.52,4.12-2.63,6.81-2.09,5.54,1.09,11.09,2.1,16.64,3.12,2.63.48,5.11.37,7.29-1.54,3.52-3.09,2.96-8.7-1.2-10.89-1.7-.9-3.59-1.32-5.44-1.82-7.11-1.9-14.27-3.66-21.33-5.75-4.22-1.25-7.55-.58-10.67,2.64-6.19,6.4-12.5,12.69-18.95,18.83-6.1,5.81-12.03,11.8-18.04,17.71-.53.52-1.23.94-1.4,1.99Z"/>
      <path class="cls-1" d="M27.04,51.59c.03,8.3,6.98,15.16,15.25,15.07,8.18-.09,14.93-6.92,14.94-15.09,0-8.78-6.51-15.49-15.24-15.28-10.17.25-15.2,8.18-14.95,15.3Z"/>
    </g>
  </g>
</svg>