<?xml version="1.0" encoding="UTF-8"?>
<svg xmlns="http://www.w3.org/2000/svg" viewBox="0 0 143.93 143.78">
  <defs>
    <style>
      .cls-1 {
        stroke: #58595b;
        stroke-miterlimit: 10;
        stroke-width: 2px;
      }

      .cls-1, .cls-2 {
        fill: #fff;
      }

      .cls-3 {
        fill: #6d6e71;
      }

      .cls-3, .cls-2 {
        stroke-width: 0px;
      }
    </style>
  </defs>
  <g id="Layer_1" data-name="Layer 1">
    <rect class="cls-1" x="1.13" y="1.29" width="141.73" height="141.73" rx="22.68" ry="22.68"/>
  </g>
  <g id="icon">
    <path class="cls-3" d="M114.98,110.25v-4.8h-10.46v-50.73h10.46v-3.69l-40.02-21.66c-1.67-1.55-4.25-1.55-5.92,0l-40.02,21.66v3.69h10.46v50.73h-10.46v4.8h-5.03v7.85h96.04v-7.85h-5.03Z"/>
    <path class="cls-2" d="M68.24,97.93c-1.75-.44-3.42-.86-5.1-1.28-.23-.06-.47-.1-.7-.17-3.58-1.16-3.97-2.06-2.37-5.5.74-1.6,1.64-2.02,3.32-1.43,1.75.62,3.46,1.37,5.3,1.66,1.92.31,3.81.36,5.62-.55,2.92-1.48,3.39-5.19.9-7.32-1.57-1.34-3.48-2.11-5.34-2.93-1.92-.85-3.84-1.66-5.6-2.85-7.07-4.77-5.82-14.2,1.1-17.86.68-.36,1.41-.68,2.15-.89.96-.27,1.39-.81,1.34-1.81-.04-.84-.04-1.68.08-2.51.23-1.68.93-2.28,2.6-2.36.36-.02.72-.01,1.08,0,1.84.05,2.6.76,2.76,2.59.09,1.07-.13,2.15.19,3.29,1.31.54,2.77.61,4.12,1.03.8.25,1.6.52,2.36.85.78.33,1.34.98,1.16,1.83-.26,1.22-.65,2.44-1.45,3.44-.77.95-1.59,1.1-3.09.49-2.15-.88-4.36-1.23-6.67-1.12-.79.04-1.55.17-2.27.49-2.78,1.22-3.13,4.58-.69,6.38,1.86,1.37,4,2.15,6.08,3.07,1.76.78,3.46,1.64,5.02,2.78,3.64,2.67,5.15,6.29,4.53,10.66-.61,4.33-3.14,7.39-7.22,8.89-2.72,1.01-2.39.88-2.44,3.55,0,.54,0,1.09-.1,1.61-.28,1.45-.98,2.05-2.44,2.16-.42.03-.84.03-1.26,0-1.79-.08-2.61-.87-2.76-2.64-.09-1.13.14-2.27-.23-3.57Z"/>
  </g>
</svg>