<?xml version="1.0" encoding="UTF-8"?>
<svg xmlns="http://www.w3.org/2000/svg" viewBox="0 0 143.42 143.78">
  <defs>
    <style>
      .cls-1 {
        stroke: #58595b;
        stroke-miterlimit: 10;
        stroke-width: 2px;
      }

      .cls-1, .cls-2 {
        fill: #fff;
      }

      .cls-3 {
        fill: #6d6e71;
      }

      .cls-3, .cls-2 {
        stroke-width: 0px;
      }
    </style>
  </defs>
  <g id="Layer_1" data-name="Layer 1">
    <rect class="cls-1" x=".81" y="1.25" width="141.73" height="141.73" rx="22.68" ry="22.68"/>
  </g>
  <g id="icon">
    <g>
      <path class="cls-3" d="M93.81,28.38h-8.68c.01-.17.02-.34.02-.52h0c0-4.4-3.57-8.7-7.98-8.7h-10.47c-4.4,0-7.98,4.3-7.98,8.7h0c0,.17,0,.34.02.52h-9.21c-6.84,0-12.39,5.55-12.39,12.39v68.72c0,6.84,5.55,12.39,12.39,12.39h9.61v1.66c0,.84.68,1.52,1.52,1.52h7.3c.84,0,1.52-.68,1.52-1.52v-1.66h5.55v1.66c0,.84.68,1.52,1.52,1.52h7.3c.84,0,1.52-.68,1.52-1.52v-1.66h8.43c6.84,0,12.39-5.55,12.39-12.39V40.77c0-6.84-5.55-12.39-12.39-12.39ZM63.03,28.38c.08-2.63,3.01-5.54,5.29-5.54h6.58c2.4,0,5.44,2.8,5.89,5.54h-17.76Z"/>
      <path class="cls-2" d="M44.59,58.86v48.56c0,3.68,2.98,6.66,6.66,6.66h40.84c3.68,0,6.66-2.98,6.66-6.66v-48.56h-54.16Z"/>
      <path class="cls-3" d="M70.41,66.7h.07c.21,0,1.35,1.7,1.53,1.92.68.88,1.36,1.76,2.03,2.64,1.34,1.77,2.65,3.56,3.89,5.4,1.55,2.29,2.98,4.67,4.2,7.15,1.62,3.3,2.78,6.43,1.94,10.13-.74,3.24-2.66,6.21-5.35,8.18-4.08,2.98-9.68,3.46-14.23,1.29-4.73-2.26-8.19-7.41-7.92-12.73.14-2.61,1.23-5.06,2.45-7.37,1.6-3.03,3.43-5.93,5.4-8.73.99-1.4,2.01-2.78,3.05-4.14.52-.68,1.05-1.36,1.58-2.03.16-.21,1.11-1.72,1.35-1.72Z"/>
      <rect class="cls-3" x="91.69" y="103.95" width="8.91" height="2.61"/>
      <rect class="cls-3" x="91.69" y="94.29" width="8.91" height="2.61"/>
      <rect class="cls-3" x="91.69" y="84.62" width="8.91" height="2.61"/>
      <rect class="cls-3" x="91.69" y="74.96" width="8.91" height="2.61"/>
      <rect class="cls-3" x="91.69" y="65.3" width="8.91" height="2.61"/>
    </g>
  </g>
</svg>