<?xml version="1.0" encoding="UTF-8"?>
<svg xmlns="http://www.w3.org/2000/svg" viewBox="0 0 143.67 143.78">
  <defs>
    <style>
      .cls-1 {
        fill: #fff;
        stroke: #58595b;
        stroke-miterlimit: 10;
        stroke-width: 2px;
      }

      .cls-2 {
        fill: #6d6e71;
        stroke-width: 0px;
      }
    </style>
  </defs>
  <g id="Layer_1" data-name="Layer 1">
    <rect class="cls-1" x=".88" y="1.31" width="141.73" height="141.73" rx="22.68" ry="22.68"/>
  </g>
  <g id="icon">
    <g>
      <path class="cls-2" d="M69.78,44.19c-21.09,0-36.15,0-49.19-.01-2.27,0-4.09.83-5.56,2.51-1.2,1.37-1.68,3.01-1.7,4.79-.03,3.01-.01,6.02-.01,9.03,0,9.59.02,26.97,0,27.2,0,4.49,10.94,8.13,14.78,8.13,3.26,0,6.52.06,9.79.12.23,0,.48,0,.69-.1.25-.13.4-.41.46-.69.26-1.45.13-2.82.69-4.22,1.15-2.86,3.83-4.74,6.9-4.87,3.84-.16,7.23,2.48,8.03,6.25.19.89.1,1.8.1,2.7,0,.66.26.99.94.95.26-.02.53,0,.79,0,7.56,0,19.14,0,30.72,0,.26,0,.53,0,.79,0,.86-.04.96-.12.96-1.01,0-1.13.06-2.24.38-3.35.99-3.38,4.13-5.64,7.76-5.54,3.54.09,6.62,2.65,7.37,6.06.2.9.19,1.79.2,2.69.02,1.05.07,1.14,1.06,1.14,6.86.02,14.39.04,21.25.01,2.32-.01,3.8-1.56,3.82-3.86.02-2.37,0-4.74.01-7.11,0-.62-.14-1.19-.33-1.76-.92-2.78-1.78-5.59-2.47-8.44-.4-1.65-.41-3.35-.6-5.03-.32-2.91-.58-5.83-.86-8.74-.18-1.94-.34-3.89-.52-5.84-.23-2.51-.43-5.01-.72-7.51-.19-1.7-1.54-3.55-4.09-3.54-21.17.08-38.31.03-51.43.03ZM107.72,80.04c0-3.61,0-7.22,0-10.83,0-1.21,0-1.22,1.16-1.22,2.3,0,4.59,0,6.89,0,1.07,0,1.09.02,1.09,1.06,0,7.26,0,14.51,0,21.77,0,1.04-.02,1.06-1.1,1.06-2.26.01-4.52,0-6.78,0-1.25,0-1.26,0-1.26-1.24,0-3.53,0-7.07,0-10.6ZM23.35,77.15c-2.29,0-2.58,0-4.87,0-1,0-1.03-.03-1.04-1.01-.01-2.37-.01-4.73,0-7.1,0-1,.05-1.04,1.13-1.04,4.51,0,7.01,0,11.53,0,1.05,0,1.07.02,1.07,1.08,0,2.29,0,4.58,0,6.87,0,1.19,0,1.2-1.16,1.2-2.22,0-4.44,0-6.66,0ZM23.28,57.31c-2.29,0-2.57,0-4.87,0-.89,0-.96-.08-.97-.97-.02-1.61.04-3.23-.02-4.84-.07-1.98,1.1-3.34,3.35-3.34,3.72,0,5.43,0,9.15,0,1.06,0,1.08.02,1.08,1.07.01,2.33.01,4.66,0,6.98,0,1.05-.05,1.09-1.07,1.1-2.22.01-4.44,0-6.65,0ZM98.71,48.16c2,0,1.98,0,3.98,0,1.03,0,1.05.02,1.05.97.01,2.41.01,4.81,0,7.22,0,.91-.04.95-.97.95-4.07,0-8.14.01-12.2,0-.89,0-.94-.06-.95-.98-.01-2.41-.01-4.81,0-7.22,0-.9.04-.93.98-.94,2.03-.01,6.08,0,8.12,0ZM60.31,48.16c2.03,0,4.07,0,6.1,0,.92,0,.94.03.95.96.01,2.41.01,4.81,0,7.22,0,.92-.05.96-.96.96-4.07.01-8.13.01-12.2,0-.9,0-.94-.05-.94-.98-.01-2.41-.01-4.81,0-7.22,0-.93.02-.94.96-.95,2.03-.01,4.07,0,6.1,0ZM42.1,48.16c2.07,0,4.14,0,6.21,0,.93,0,.95.02.95.96.01,2.41.01,4.81,0,7.22,0,.93-.04.97-.95.97-4.07.01-8.14.01-12.2,0-.91,0-.95-.04-.95-.97-.01-2.41-.01-4.81,0-7.22,0-.93.02-.95.95-.96,2-.01,3.99,0,5.99,0ZM98.82,77.15c-2.07,0-6.16,0-8.23,0-.94,0-.97-.04-.98-.94-.01-2.41-.01-4.81,0-7.22,0-.93.05-.98.95-.98,4.07-.01,8.14-.01,12.2,0,.93,0,.96.04.97.95.01,2.41.01,4.81,0,7.22,0,.96-.02.97-1.05.97-1.96,0-1.9,0-3.86,0ZM60.35,77.15c-2.07,0-4.14-.02-6.21.01-.7.01-.92-.24-.91-.92.03-2.41,0-4.81.01-7.22,0-1,.02-1.02,1.01-1.02,4.03,0,8.06,0,12.09,0,.98,0,1,.03,1.01,1.03.01,2.37.01,4.74,0,7.11,0,.99-.02,1.01-1.01,1.01-2,.01-3.99,0-5.99,0ZM42.32,77.15c-2.07,0-4.14,0-6.21,0-.93,0-.95-.02-.95-.96-.01-2.41-.01-4.81,0-7.22,0-.92.04-.97.95-.97,4.07-.01,8.14-.01,12.2,0,.91,0,.94.04.95.97.01,2.41.01,4.81,0,7.22,0,.93-.02.95-.95.95-2,.01-3.99,0-5.99,0ZM80.48,48.16c2,0,1.98,0,3.97,0,.97,0,1,.02,1.01.91.02,2.44-.01,4.89.02,7.33,0,.69-.25.92-.93.92-4.03-.02-8.06,0-12.09-.01-.89,0-.96-.08-.97-.98-.02-2.41-.02-4.81,0-7.22,0-.89.06-.94.98-.95,2-.01,6,0,8,0ZM80.54,77.15c-2,0-6,0-8,0-1.01,0-1.04-.03-1.05-1-.01-2.37-.01-4.74,0-7.11,0-.98.06-1.04,1.02-1.04,3.99-.01,7.98-.01,11.97,0,.92,0,.97.06.97.96.01,2.41.01,4.81,0,7.22,0,.93-.04.96-.95.97-2,.01-1.98,0-3.97,0ZM114.99,57.31c-2.11,0-4.22-.02-6.32,0-.64,0-.97-.15-.96-.88.03-2.48.03-4.96,0-7.44,0-.63.22-.86.85-.85,3.91.02,7.83.02,11.74,0,.62,0,.85.21.91.83.21,2.47.47,4.93.72,7.39.09.92.11.93-.85.94-2.03.01-4.06,0-6.1,0ZM119.84,71.81c0-.97.03-1.95-.01-2.92-.03-.7.25-.94.93-.9.71.04,1.43.03,2.14,0,.6-.02.87.18.92.82.17,1.98.4,3.95.61,5.92.06.54-.05.87-.69.85-1.05-.03-2.1-.03-3.15,0-.62.02-.76-.3-.75-.84.02-.97,0-1.95,0-2.92Z"/>
      <path class="cls-2" d="M103.06,94c-.15,3.19-2.44,6.22-6.36,6.19-3.76-.04-6.2-2.78-6.23-6.29-.03-3.22,2.47-6.2,6.33-6.19,3.58.01,6.08,2.72,6.27,6.29Z"/>
      <path class="cls-2" d="M53.23,94.05c-.05,3.26-2.66,6.23-6.4,6.15-4.17-.1-6.3-3.56-6.16-6.49.15-3.23,2.74-6.01,6.35-6,3.48.01,6.29,2.96,6.22,6.34Z"/>
    </g>
  </g>
</svg>