<?xml version="1.0" encoding="UTF-8"?>
<svg xmlns="http://www.w3.org/2000/svg" viewBox="0 0 143.93 143.78">
  <defs>
    <style>
      .cls-1 {
        letter-spacing: -.1em;
      }

      .cls-2 {
        stroke: #58595b;
      }

      .cls-2, .cls-3 {
        fill: #fff;
      }

      .cls-2, .cls-4 {
        stroke-miterlimit: 10;
        stroke-width: 2px;
      }

      .cls-5 {
        fill: #6d6e71;
        stroke-width: 0px;
      }

      .cls-3 {
        font-family: Swiss721BT-BlackCondensed, 'Swis721 BlkCn BT';
        font-size: 31.53px;
        font-weight: 800;
      }

      .cls-6 {
        letter-spacing: -.1em;
      }

      .cls-4 {
        stroke: #fff;
      }
    </style>
  </defs>
  <g id="Layer_1" data-name="Layer 1">
    <rect class="cls-2" x="1.06" y="1.29" width="141.73" height="141.73" rx="22.68" ry="22.68"/>
  </g>
  <g id="icon">
    <path class="cls-5" d="M119.35,71.33H28.59c-1.62,0-2.93,1.31-2.93,2.93v42.78c0,1.62,1.31,2.93,2.93,2.93h3.36v-34.6c0-1.26,1.02-2.28,2.28-2.28h9.41c1.26,0,2.28,1.02,2.28,2.28v34.6h4.72v-34.6c0-1.26,1.02-2.28,2.28-2.28h9.41c1.26,0,2.28,1.02,2.28,2.28v34.6h54.76c1.62,0,2.93-1.31,2.93-2.93v-42.78c0-1.62-1.31-2.93-2.93-2.93ZM84.04,106.71c0,1.26-1.02,2.28-2.28,2.28h-4.92c-1.26,0-2.28-1.02-2.28-2.28v-21.34c0-1.26,1.02-2.28,2.28-2.28h4.92c1.26,0,2.28,1.02,2.28,2.28v21.34ZM98.04,106.71c0,1.26-1.02,2.28-2.28,2.28h-4.92c-1.26,0-2.28-1.02-2.28-2.28v-21.34c0-1.26,1.02-2.28,2.28-2.28h4.92c1.26,0,2.28,1.02,2.28,2.28v21.34ZM112.03,106.71c0,1.26-1.02,2.28-2.28,2.28h-4.92c-1.26,0-2.28-1.02-2.28-2.28v-21.34c0-1.26,1.02-2.28,2.28-2.28h4.92c1.26,0,2.28,1.02,2.28,2.28v21.34Z"/>
    <rect class="cls-5" x="26.04" y="32.53" width="95.86" height="36.23" rx="5.3" ry="5.3"/>
    <text class="cls-3" transform="translate(39.29 63.54)"><tspan x="0" y="0">24</tspan><tspan class="cls-6" x="33.81" y="0"> </tspan><tspan class="cls-4" x="39.11" y="-2">/</tspan><tspan class="cls-1" x="47.66" y="0"> </tspan><tspan x="52.96" y="0">7</tspan></text>
  </g>
</svg>