<?xml version="1.0" encoding="UTF-8"?>
<svg xmlns="http://www.w3.org/2000/svg" viewBox="0 0 143.42 143.78">
  <defs>
    <style>
      .cls-1 {
        fill: #fff;
        stroke: #58595b;
        stroke-miterlimit: 10;
        stroke-width: 2px;
      }

      .cls-2 {
        fill: #6d6e71;
        stroke-width: 0px;
      }
    </style>
  </defs>
  <g id="Layer_1" data-name="Layer 1">
    <rect class="cls-1" x=".81" y="1.31" width="141.73" height="141.73" rx="22.68" ry="22.68"/>
  </g>
  <g id="icon">
    <g>
      <g>
        <path class="cls-2" d="M25.27,29c1.4.32,2.45,1.83,2.88,3.2,2.26,7.2,4.52,14.4,6.78,21.6.28.9.59,1.79.85,2.7.13.47.4.74.86.91,2.12.81,4.22,1.67,6.35,2.45,1.34.49,2.57,1.17,3.77,1.93,6.87,4.37,13.74,8.73,20.61,13.09,1.05.67,2.61,1.89,2.6,3.28,0,.42-.17.83-.4,1.18-1.31,2.01-3.81,1.6-5.66.6-2.97-1.59-15.32-8.85-18.6-10.74-.65-.37-3.15,6.03-4.27,8.89-.16.4-.12.73.09,1.09,1.27,2.2,1.72,4.62,1.83,7.12.03.7-.06,1.41-.17,2.11-.06.39,0,.69.2,1,5.44,8.4,14.55,18.83,18.48,23.42.88,1.03.8,2.21-.19,3.14-.04.04-.09.08-.13.12-1.66,1.6-2.76,1.26-4.18-.06-5.04-4.71-10.14-9.37-15.21-14.05-.72-.66-1.41-1.35-2.11-2.02-.63-.61-.69-.61-.97.17-.8,2.22-1.59,4.44-2.38,6.66-1.31,3.67-2.62,7.33-3.91,11-.39,1.1-1.51,2.09-3.02,1.39-.19-.09-.38-.16-.58-.21-1.26-.34-1.91-1.27-1.54-2.89,1.69-7.32,3.34-14.65,5.03-21.97.16-.7.49-1.04-2-3.65-2.46-2.59-3.59-6.3-4.09-9.78-.49-3.42-.22-6.95.73-10.27.45-1.56,1.1-3.04,1.63-4.57.28-.81.99-2.04.99-2.9,0,0-7.45-29.18-7.59-30.03-.23-1.44.26-3.14,1.7-3.75.58-.24,1.12-.28,1.62-.17Z"/>
        <path class="cls-2" d="M37.61,50.78c-.23-3.55,2.89-7.65,7.63-7.66,4.39,0,7.69,3.51,7.69,7.73,0,4.15-3.31,7.64-7.68,7.66-4.65.02-7.85-3.95-7.64-7.73Z"/>
      </g>
      <g>
        <path class="cls-2" d="M118.08,29c-1.4.32-2.45,1.83-2.88,3.2-2.26,7.2-4.52,14.4-6.78,21.6-.28.9-.59,1.79-.85,2.7-.13.47-.4.74-.86.91-2.12.81-4.22,1.67-6.35,2.45-1.34.49-2.57,1.17-3.77,1.93-6.87,4.37-13.74,8.73-20.61,13.09-1.05.67-2.61,1.89-2.6,3.28,0,.42.17.83.4,1.18,1.31,2.01,3.81,1.6,5.66.6,2.97-1.59,15.32-8.85,18.6-10.74.65-.37,3.15,6.03,4.27,8.89.16.4.12.73-.09,1.09-1.27,2.2-1.72,4.62-1.83,7.12-.03.7.06,1.41.17,2.11.06.39,0,.69-.2,1-5.44,8.4-14.55,18.83-18.48,23.42-.88,1.03-.8,2.21.19,3.14.04.04.09.08.13.12,1.66,1.6,2.76,1.26,4.18-.06,5.04-4.71,10.14-9.37,15.21-14.05.72-.66,1.41-1.35,2.11-2.02.63-.61.69-.61.97.17.8,2.22,1.59,4.44,2.38,6.66,1.31,3.67,2.62,7.33,3.91,11,.39,1.1,1.51,2.09,3.02,1.39.19-.09.38-.16.58-.21,1.26-.34,1.91-1.27,1.54-2.89-1.69-7.32-3.34-14.65-5.03-21.97-.16-.7-.49-1.04,2-3.65,2.46-2.59,3.59-6.3,4.09-9.78.49-3.42.22-6.95-.73-10.27-.45-1.56-1.1-3.04-1.63-4.57-.28-.81-.99-2.04-.99-2.9,0,0,7.45-29.18,7.59-30.03.23-1.44-.26-3.14-1.7-3.75-.58-.24-1.12-.28-1.62-.17Z"/>
        <path class="cls-2" d="M105.74,50.78c.23-3.55-2.89-7.65-7.63-7.66-4.39,0-7.69,3.51-7.69,7.73,0,4.15,3.31,7.64,7.68,7.66,4.65.02,7.85-3.95,7.64-7.73Z"/>
      </g>
      <path class="cls-2" d="M117.03,81.55c-1.91,7.26,5.42,16.04,3.8,17.33s-16.18-.07-22.07-5.06c-2.64-8.64,3.37-16.39,7.5-18.28"/>
    </g>
  </g>
</svg>