<?xml version="1.0" encoding="UTF-8"?>
<svg xmlns="http://www.w3.org/2000/svg" viewBox="0 0 143.93 143.74">
  <defs>
    <style>
      .cls-1 {
        fill: #fff;
        stroke: #58595b;
        stroke-miterlimit: 10;
        stroke-width: 2px;
      }

      .cls-2 {
        fill: #6d6e71;
        stroke-width: 0px;
      }
    </style>
  </defs>
  <g id="Layer_1" data-name="Layer 1">
    <rect class="cls-1" x="1.06" y="1.23" width="141.73" height="141.73" rx="22.68" ry="22.68"/>
  </g>
  <g id="icon">
    <g>
      <path class="cls-2" d="M129.06,106.95s-32.91,0-32.91,0l-15,.04s-1.19.07-1.19-.58c-.04-.32.24-.59.53-.72,3.14-1.44,6.61-2.63,9.98-3.39,3.49-.79,7.05-1.22,10.62-1.51,5.73-.46,11.47-.49,17.22-.49,2.18,0,2.17-.03,2.17-2.2,0-17,0-51.01,0-51.01,0,0,.03-.39.03-1.77s1.73-1.67,1.73-1.67l6.83.14v63.16Z"/>
      <path class="cls-2" d="M74.26,75.28c0-8.83.08-17.67-.05-26.5-.03-2.32.84-3.74,2.67-5,3.93-2.73,8.41-3.89,13.01-4.6,8.02-1.23,16.12-1.59,24.23-1.56,2.68.01,2.8.11,2.8,2.91.01,14.13,0,28.27,0,42.4,0,3.7.02,7.4,0,11.11-.02,2.5-.27,2.73-2.75,2.8-4.89.13-9.78.09-14.67.53-7.74.7-15.15,2.4-22.04,6.08-.3.16-.6.31-.9.46-2.12,1.02-2.27.96-2.27-1.37-.02-9.09,0-18.17,0-27.26Z"/>
      <path class="cls-2" d="M69.37,75.11c0,8.67,0,17.34,0,26,0,.5.01,1.01,0,1.51-.06,2.22-.17,2.29-2.1,1.28-3.97-2.07-8.04-3.91-12.44-4.92-6.37-1.46-12.83-2.01-19.34-2.09-1.77-.02-3.55-.03-5.32-.05-3.14-.04-3.15-.06-3.17-3.06,0-.59,0-1.18,0-1.77,0-16.75,0-33.49,0-50.24,0-.67.04-1.35,0-2.02-.08-1.46.49-2.16,2.05-2.15,9.97.06,19.93.24,29.7,2.51,3.16.73,6.07,1.98,8.71,3.92,1.34.99,1.95,2.09,1.94,3.81-.07,9.09-.03,18.18-.03,27.26Z"/>
      <path class="cls-2" d="M14.8,75.11c0-9.51,0-19.02,0-28.52,0-2.79,0-2.87,0-2.87,0,0,4.67,0,5.6,0,2.96.03,3.12.16,3.12,3.18.01,16.07,0,32.14.01,48.21,0,6.06-.59,5.03,5.23,5.33,7.91.41,15.88.08,23.69,1.8,3.73.82,7.34,1.94,10.76,3.63.35.17.92.32.8.82-.12.48-.69.34-1.08.34-3.04.01-6.08,0-9.12,0-11.83,0-23.65,0-35.48,0q-3.52,0-3.53-3.41c0-9.51,0-19.02,0-28.52Z"/>
    </g>
  </g>
</svg>