<?xml version="1.0" encoding="UTF-8"?>
<svg xmlns="http://www.w3.org/2000/svg" viewBox="0 0 143.67 143.78">
  <defs>
    <style>
      .cls-1 {
        fill: #fff;
        stroke: #58595b;
        stroke-miterlimit: 10;
        stroke-width: 2px;
      }

      .cls-2 {
        fill: #6d6e71;
        stroke-width: 0px;
      }

      .cls-3 {
        fill: none;
        stroke: #fff;
        stroke-linecap: round;
        stroke-linejoin: round;
        stroke-width: 3px;
      }
    </style>
  </defs>
  <g id="Layer_1" data-name="Layer 1">
    <rect class="cls-1" x=".88" y="1.31" width="141.73" height="141.73" rx="22.68" ry="22.68"/>
  </g>
  <g id="icon">
    <g>
      <g>
        <path class="cls-2" d="M21.91,52.52c0-8.97,0-17.94,0-26.91,0-.37-.01-.74,0-1.11.05-1.01.17-1.13,1.16-1.17.29-.01.58,0,.86,0,14.62,0,29.23,0,43.85,0,2.08,0,2.08.02,1.39,1.94-2.09,5.74-4.72,11.22-8.05,16.35-3.28,5.04-7.12,9.56-12.07,13.07-4.4,3.12-9.27,4.93-14.67,5.27-1.04.07-1.04.06-.7,1.05,1.55,4.58,2.44,9.29,2.9,14.1.17,1.81.22,3.61.23,5.42,0,1.12-.07,1.2-1.19,1.2-4.03.01-8.07,0-12.1,0-1.59,0-1.6,0-1.6-1.56,0-5.47,0-10.94,0-16.42,0-3.74,0-7.49,0-11.23Z"/>
        <path class="cls-2" d="M120.76,52.5c0,8.97,0,17.94,0,26.91,0,.33,0,.66,0,.99-.03,1.26-.08,1.33-1.33,1.33-4.08,0-8.15,0-12.23,0-1.31,0-1.34-.04-1.33-1.43.04-6.42,1.02-12.69,2.99-18.8.06-.2.14-.39.2-.58.27-.88.27-.9-.64-.95-1.48-.09-2.95-.29-4.39-.61-4.77-1.04-8.93-3.3-12.65-6.4-5.04-4.2-8.83-9.39-12.06-15.04-2.38-4.15-4.32-8.5-5.91-13.01-.08-.23-.15-.47-.23-.7-.22-.6.03-.85.62-.86.33,0,.66,0,.99,0,14.74,0,29.48,0,44.22,0,.29,0,.58.01.86,0,.63-.02.9.31.89.91,0,.37,0,.74,0,1.11,0,9.05,0,18.1,0,27.15Z"/>
      </g>
      <rect class="cls-2" x="17.11" y="84.99" width="108.45" height="4"/>
      <g>
        <path class="cls-2" d="M40.93,113.52v-13.32c0-3.15-2.55-5.7-5.7-5.7h-5.42c-3.15,0-5.7,2.55-5.7,5.7v13.32h16.82Z"/>
        <path class="cls-2" d="M60.34,113.52v-13.32c0-3.15-2.55-5.7-5.7-5.7h-5.42c-3.15,0-5.7,2.55-5.7,5.7v13.32h16.82Z"/>
        <path class="cls-2" d="M79.74,113.52v-13.32c0-3.15-2.55-5.7-5.7-5.7h-5.42c-3.15,0-5.7,2.55-5.7,5.7v13.32h16.82Z"/>
        <path class="cls-2" d="M99.15,113.52v-13.32c0-3.15-2.55-5.7-5.7-5.7h-5.42c-3.15,0-5.7,2.55-5.7,5.7v13.32h16.82Z"/>
        <path class="cls-2" d="M118.56,113.52v-13.32c0-3.15-2.55-5.7-5.7-5.7h-5.42c-3.15,0-5.7,2.55-5.7,5.7v13.32h16.82Z"/>
      </g>
      <g>
        <path class="cls-2" d="M31.22,123.03v-13.32c0-3.15-2.55-5.7-5.7-5.7h-5.42c-3.15,0-5.7,2.55-5.7,5.7v13.32h16.82Z"/>
        <path class="cls-2" d="M50.63,123.03v-13.32c0-3.15-2.55-5.7-5.7-5.7h-5.42c-3.15,0-5.7,2.55-5.7,5.7v13.32h16.82Z"/>
        <path class="cls-2" d="M70.04,123.03v-13.32c0-3.15-2.55-5.7-5.7-5.7h-5.42c-3.15,0-5.7,2.55-5.7,5.7v13.32h16.82Z"/>
        <path class="cls-2" d="M89.45,123.03v-13.32c0-3.15-2.55-5.7-5.7-5.7h-5.42c-3.15,0-5.7,2.55-5.7,5.7v13.32h16.82Z"/>
        <path class="cls-2" d="M108.86,123.03v-13.32c0-3.15-2.55-5.7-5.7-5.7h-5.42c-3.15,0-5.7,2.55-5.7,5.7v13.32h16.82Z"/>
        <path class="cls-2" d="M128.27,123.03v-13.32c0-3.15-2.55-5.7-5.7-5.7h-5.42c-3.15,0-5.7,2.55-5.7,5.7v13.32h16.82Z"/>
      </g>
      <g>
        <path class="cls-3" d="M31.22,123.03v-13.32c0-3.15-2.55-5.7-5.7-5.7h-5.42c-3.15,0-5.7,2.55-5.7,5.7v13.32h16.82Z"/>
        <path class="cls-3" d="M50.63,123.03v-13.32c0-3.15-2.55-5.7-5.7-5.7h-5.42c-3.15,0-5.7,2.55-5.7,5.7v13.32h16.82Z"/>
        <path class="cls-3" d="M70.04,123.03v-13.32c0-3.15-2.55-5.7-5.7-5.7h-5.42c-3.15,0-5.7,2.55-5.7,5.7v13.32h16.82Z"/>
        <path class="cls-3" d="M89.45,123.03v-13.32c0-3.15-2.55-5.7-5.7-5.7h-5.42c-3.15,0-5.7,2.55-5.7,5.7v13.32h16.82Z"/>
        <path class="cls-3" d="M108.86,123.03v-13.32c0-3.15-2.55-5.7-5.7-5.7h-5.42c-3.15,0-5.7,2.55-5.7,5.7v13.32h16.82Z"/>
        <path class="cls-3" d="M128.27,123.03v-13.32c0-3.15-2.55-5.7-5.7-5.7h-5.42c-3.15,0-5.7,2.55-5.7,5.7v13.32h16.82Z"/>
      </g>
    </g>
  </g>
</svg>