<?xml version="1.0" encoding="UTF-8"?>
<svg xmlns="http://www.w3.org/2000/svg" viewBox="0 0 143.93 143.74">
  <defs>
    <style>
      .cls-1 {
        fill: #fff;
        stroke: #58595b;
        stroke-miterlimit: 10;
        stroke-width: 2px;
      }

      .cls-2 {
        fill: #6d6e71;
        stroke-width: 0px;
      }

      .cls-3 {
        fill: none;
        stroke: #fff;
        stroke-linecap: round;
        stroke-linejoin: round;
        stroke-width: 3px;
      }
    </style>
  </defs>
  <g id="Layer_1" data-name="Layer 1">
    <rect class="cls-1" x="1.06" y="1.23" width="141.73" height="141.73" rx="22.68" ry="22.68"/>
  </g>
  <g id="icon">
    <g>
      <path class="cls-2" d="M36.14,75.83s98.16,0,98.16,0c-5.48,4.59-10.97,9.16-16.75,13.37-.93.67-1.87,1.36-2.56,2.28-.78,1.04-.69,3.45-.69,3.45,0,0-31.44.03-40.84.03h-30.37l-6.94-11.11v-8.02Z"/>
      <polygon class="cls-2" points="115.05 73.6 44.93 73.6 48.64 70.05 44.93 66.96 44.93 65.57 105.79 65.57 115.05 73.6"/>
      <polygon class="cls-2" points="96.84 63.49 89.44 54.24 59.41 54.24 59.41 56.09 65.43 58.87 62.19 63.49 96.84 63.49"/>
      <rect class="cls-2" x="72.07" y="47.61" width="10.8" height="4.39"/>
      <rect class="cls-2" x="11.76" y="80.32" width="20.73" height="14.65"/>
      <g>
        <rect class="cls-2" x="13.47" y="76.69" width="1.62" height="3.63"/>
        <rect class="cls-2" x="17.38" y="76.69" width="1.62" height="3.63"/>
        <rect class="cls-2" x="21.29" y="76.69" width="1.62" height="3.63"/>
        <rect class="cls-2" x="25.2" y="76.69" width="1.62" height="3.63"/>
        <rect class="cls-2" x="29.11" y="76.69" width="1.62" height="3.63"/>
      </g>
      <rect class="cls-2" x="11.74" y="75.58" width="20.73" height="1.41"/>
      <g>
        <g>
          <path class="cls-3" d="M72.59,95.43c-1.75-.29-3.17-1.37-4.61-2.32-3.42-2.27-6.74-2.02-10.04.22-.58.39-1.17.79-1.77,1.15-2.51,1.5-4.99,1.38-7.44-.16-.98-.62-1.92-1.3-2.94-1.82-2.72-1.41-5.42-1.3-8.06.27-.99.59-1.94,1.25-2.94,1.83-2.4,1.38-4.78,1.19-7.11-.21-1.04-.63-2.03-1.35-3.11-1.91-2.72-1.4-5.44-1.35-8.04.31-1.79,1.14-3.51,2.38-5.65,2.78v4.09c2.15-.4,3.87-1.64,5.65-2.78,2.6-1.66,5.32-1.71,8.04-.31,1.08.56,2.07,1.28,3.11,1.91,2.33,1.4,4.71,1.58,7.11.21,1-.57,1.95-1.24,2.94-1.83,2.63-1.58,5.34-1.68,8.06-.27,1.02.53,1.96,1.21,2.94,1.82,2.45,1.55,4.93,1.66,7.44.16.6-.36,1.19-.76,1.77-1.15,3.3-2.24,6.63-2.49,10.04-.22,1.44.96,2.86,2.03,4.61,2.32v-4.09Z"/>
          <path class="cls-3" d="M72.59,102.1c-1.75-.29-3.17-1.37-4.61-2.32-3.42-2.27-6.74-2.02-10.04.22-.58.39-1.17.79-1.77,1.15-2.51,1.5-4.99,1.38-7.44-.16-.98-.62-1.92-1.3-2.94-1.82-2.72-1.41-5.42-1.3-8.06.27-.99.59-1.94,1.25-2.94,1.83-2.4,1.38-4.78,1.19-7.11-.21-1.04-.63-2.03-1.35-3.11-1.91-2.72-1.4-5.44-1.35-8.04.31-1.79,1.14-3.51,2.38-5.65,2.78v4.09c2.15-.4,3.87-1.64,5.65-2.78,2.6-1.66,5.32-1.71,8.04-.31,1.08.56,2.07,1.28,3.11,1.91,2.33,1.4,4.71,1.58,7.11.21,1-.57,1.95-1.24,2.94-1.83,2.63-1.58,5.34-1.68,8.06-.27,1.02.53,1.96,1.21,2.94,1.82,2.45,1.55,4.93,1.66,7.44.16.6-.36,1.19-.76,1.77-1.15,3.3-2.24,6.63-2.49,10.04-.22,1.44.96,2.86,2.03,4.61,2.32v-4.09Z"/>
        </g>
        <g>
          <path class="cls-3" d="M72.59,95.43c1.75-.29,3.17-1.37,4.61-2.32,3.42-2.27,6.74-2.02,10.04.22.58.39,1.17.79,1.77,1.15,2.51,1.5,4.99,1.38,7.44-.16.98-.62,1.92-1.3,2.94-1.82,2.72-1.41,5.42-1.3,8.06.27.99.59,1.94,1.25,2.94,1.83,2.4,1.38,4.78,1.19,7.11-.21,1.04-.63,2.03-1.35,3.11-1.91,2.72-1.4,5.44-1.35,8.04.31,1.79,1.14,3.51,2.38,5.65,2.78v4.09c-2.15-.4-3.87-1.64-5.65-2.78-2.6-1.66-5.32-1.71-8.04-.31-1.08.56-2.07,1.28-3.11,1.91-2.33,1.4-4.71,1.58-7.11.21-1-.57-1.95-1.24-2.94-1.83-2.63-1.58-5.34-1.68-8.06-.27-1.02.53-1.96,1.21-2.94,1.82-2.45,1.55-4.93,1.66-7.44.16-.6-.36-1.19-.76-1.77-1.15-3.3-2.24-6.63-2.49-10.04-.22-1.44.96-2.86,2.03-4.61,2.32v-4.09Z"/>
          <path class="cls-3" d="M72.59,102.1c1.75-.29,3.17-1.37,4.61-2.32,3.42-2.27,6.74-2.02,10.04.22.58.39,1.17.79,1.77,1.15,2.51,1.5,4.99,1.38,7.44-.16.98-.62,1.92-1.3,2.94-1.82,2.72-1.41,5.42-1.3,8.06.27.99.59,1.94,1.25,2.94,1.83,2.4,1.38,4.78,1.19,7.11-.21,1.04-.63,2.03-1.35,3.11-1.91,2.72-1.4,5.44-1.35,8.04.31,1.79,1.14,3.51,2.38,5.65,2.78v4.09c-2.15-.4-3.87-1.64-5.65-2.78-2.6-1.66-5.32-1.71-8.04-.31-1.08.56-2.07,1.28-3.11,1.91-2.33,1.4-4.71,1.58-7.11.21-1-.57-1.95-1.24-2.94-1.83-2.63-1.58-5.34-1.68-8.06-.27-1.02.53-1.96,1.21-2.94,1.82-2.45,1.55-4.93,1.66-7.44.16-.6-.36-1.19-.76-1.77-1.15-3.3-2.24-6.63-2.49-10.04-.22-1.44.96-2.86,2.03-4.61,2.32v-4.09Z"/>
        </g>
      </g>
      <g>
        <g>
          <path class="cls-2" d="M72.59,95.43c-1.75-.29-3.17-1.37-4.61-2.32-3.42-2.27-6.74-2.02-10.04.22-.58.39-1.17.79-1.77,1.15-2.51,1.5-4.99,1.38-7.44-.16-.98-.62-1.92-1.3-2.94-1.82-2.72-1.41-5.42-1.3-8.06.27-.99.59-1.94,1.25-2.94,1.83-2.4,1.38-4.78,1.19-7.11-.21-1.04-.63-2.03-1.35-3.11-1.91-2.72-1.4-5.44-1.35-8.04.31-1.79,1.14-3.51,2.38-5.65,2.78v4.09c2.15-.4,3.87-1.64,5.65-2.78,2.6-1.66,5.32-1.71,8.04-.31,1.08.56,2.07,1.28,3.11,1.91,2.33,1.4,4.71,1.58,7.11.21,1-.57,1.95-1.24,2.94-1.83,2.63-1.58,5.34-1.68,8.06-.27,1.02.53,1.96,1.21,2.94,1.82,2.45,1.55,4.93,1.66,7.44.16.6-.36,1.19-.76,1.77-1.15,3.3-2.24,6.63-2.49,10.04-.22,1.44.96,2.86,2.03,4.61,2.32v-4.09Z"/>
          <path class="cls-2" d="M72.59,102.1c-1.75-.29-3.17-1.37-4.61-2.32-3.42-2.27-6.74-2.02-10.04.22-.58.39-1.17.79-1.77,1.15-2.51,1.5-4.99,1.38-7.44-.16-.98-.62-1.92-1.3-2.94-1.82-2.72-1.41-5.42-1.3-8.06.27-.99.59-1.94,1.25-2.94,1.83-2.4,1.38-4.78,1.19-7.11-.21-1.04-.63-2.03-1.35-3.11-1.91-2.72-1.4-5.44-1.35-8.04.31-1.79,1.14-3.51,2.38-5.65,2.78v4.09c2.15-.4,3.87-1.64,5.65-2.78,2.6-1.66,5.32-1.71,8.04-.31,1.08.56,2.07,1.28,3.11,1.91,2.33,1.4,4.71,1.58,7.11.21,1-.57,1.95-1.24,2.94-1.83,2.63-1.58,5.34-1.68,8.06-.27,1.02.53,1.96,1.21,2.94,1.82,2.45,1.55,4.93,1.66,7.44.16.6-.36,1.19-.76,1.77-1.15,3.3-2.24,6.63-2.49,10.04-.22,1.44.96,2.86,2.03,4.61,2.32v-4.09Z"/>
        </g>
        <g>
          <path class="cls-2" d="M72.59,95.43c1.75-.29,3.17-1.37,4.61-2.32,3.42-2.27,6.74-2.02,10.04.22.58.39,1.17.79,1.77,1.15,2.51,1.5,4.99,1.38,7.44-.16.98-.62,1.92-1.3,2.94-1.82,2.72-1.41,5.42-1.3,8.06.27.99.59,1.94,1.25,2.94,1.83,2.4,1.38,4.78,1.19,7.11-.21,1.04-.63,2.03-1.35,3.11-1.91,2.72-1.4,5.44-1.35,8.04.31,1.79,1.14,3.51,2.38,5.65,2.78v4.09c-2.15-.4-3.87-1.64-5.65-2.78-2.6-1.66-5.32-1.71-8.04-.31-1.08.56-2.07,1.28-3.11,1.91-2.33,1.4-4.71,1.58-7.11.21-1-.57-1.95-1.24-2.94-1.83-2.63-1.58-5.34-1.68-8.06-.27-1.02.53-1.96,1.21-2.94,1.82-2.45,1.55-4.93,1.66-7.44.16-.6-.36-1.19-.76-1.77-1.15-3.3-2.24-6.63-2.49-10.04-.22-1.44.96-2.86,2.03-4.61,2.32v-4.09Z"/>
          <path class="cls-2" d="M72.59,102.1c1.75-.29,3.17-1.37,4.61-2.32,3.42-2.27,6.74-2.02,10.04.22.58.39,1.17.79,1.77,1.15,2.51,1.5,4.99,1.38,7.44-.16.98-.62,1.92-1.3,2.94-1.82,2.72-1.41,5.42-1.3,8.06.27.99.59,1.94,1.25,2.94,1.83,2.4,1.38,4.78,1.19,7.11-.21,1.04-.63,2.03-1.35,3.11-1.91,2.72-1.4,5.44-1.35,8.04.31,1.79,1.14,3.51,2.38,5.65,2.78v4.09c-2.15-.4-3.87-1.64-5.65-2.78-2.6-1.66-5.32-1.71-8.04-.31-1.08.56-2.07,1.28-3.11,1.91-2.33,1.4-4.71,1.58-7.11.21-1-.57-1.95-1.24-2.94-1.83-2.63-1.58-5.34-1.68-8.06-.27-1.02.53-1.96,1.21-2.94,1.82-2.45,1.55-4.93,1.66-7.44.16-.6-.36-1.19-.76-1.77-1.15-3.3-2.24-6.63-2.49-10.04-.22-1.44.96-2.86,2.03-4.61,2.32v-4.09Z"/>
        </g>
      </g>
    </g>
  </g>
</svg>