<?xml version="1.0" encoding="UTF-8"?>
<svg xmlns="http://www.w3.org/2000/svg" viewBox="0 0 143.67 143.78">
  <defs>
    <style>
      .cls-1 {
        fill: #fff;
        stroke: #58595b;
        stroke-miterlimit: 10;
        stroke-width: 2px;
      }

      .cls-2 {
        fill: #6d6e71;
        stroke-width: 0px;
      }
    </style>
  </defs>
  <g id="Layer_1" data-name="Layer 1">
    <rect class="cls-1" x=".88" y="1.31" width="141.73" height="141.73" rx="22.68" ry="22.68"/>
  </g>
  <g id="icon">
    <g>
      <path class="cls-2" d="M111.37,73.6c.06,4.32-.61,8.21-1.88,12.03-1.17,3.54-2.87,6.8-4.96,9.87-1.67,2.45-3.68,4.6-5.88,6.55-3.53,3.14-7.54,5.53-12,7.18-2.98,1.1-6.04,1.77-9.18,2.13-1.91.22-3.85.28-5.78.16-4.91-.3-9.62-1.42-14.08-3.52-2.48-1.17-4.85-2.54-7-4.22-1.74-1.36-3.39-2.84-4.89-4.48-1.43-1.56-2.74-3.22-3.88-4.99-1.27-1.97-2.36-4.05-3.25-6.23-.65-1.59-1.2-3.22-1.62-4.89-.42-1.64-.73-3.3-.93-4.98-.17-1.45-.29-2.9-.29-4.36,0-2.22.23-4.41.58-6.6.61-3.82,1.89-7.41,3.62-10.84,1.27-2.52,2.84-4.85,4.66-7,1.58-1.87,3.33-3.56,5.22-5.11,3.56-2.93,7.57-5.05,11.93-6.52,2.17-.73,4.41-1.2,6.69-1.54,2.57-.38,5.15-.37,7.72-.25,2.58.12,5.11.61,7.6,1.3,2.45.67,4.8,1.58,7.05,2.75,2.92,1.52,5.61,3.37,8.08,5.57,2.19,1.96,4.1,4.15,5.78,6.53,1.4,1.98,2.59,4.09,3.54,6.33,1.52,3.57,2.04,5.69,2.57,8.33.16.79.29,1.59.38,2.39.17,1.55.26,3.11.2,4.38ZM73.57,99.33c14.06.16,25.69-11.43,25.69-25.55,0-14.25-11.46-25.62-25.53-25.7-14.35-.08-25.77,11.65-25.8,25.66-.03,14.01,11.65,25.78,25.63,25.6Z"/>
      <path class="cls-2" d="M31.72,52.52c.04.81-.04,2.08-.17,3.35-.1.92-.46,1.75-1.02,2.5-.89,1.19-1.9,2.28-2.99,3.29-.53.5-.85,1.01-.71,1.77.07.38.02.78.02,1.17-.03,2.84.16,5.67.22,8.51.04,1.66.01,3.33.14,4.99.14,1.77.02,3.54.16,5.31.14,1.82.02,3.65.16,5.46.13,1.69.02,3.39.16,5.07.14,1.74.02,3.49.16,5.23.13,1.74.02,3.49.16,5.23.14,1.8.02,3.6.16,5.38.13,1.72.07,3.44.15,5.15.03.6.09,1.18-.03,1.78-.23,1.22-.84,2.18-1.93,2.79-1.3.74-3.13.31-4.05-.95-.8-1.09-1.02-2.32-.89-3.63.02-.23.08-.47.07-.7-.04-3.07.17-6.14.23-9.21.04-1.77.02-3.54.15-5.31.13-1.69.02-3.39.15-5.07.13-1.8.03-3.6.16-5.38.12-1.67.02-3.34.15-4.99.14-1.82.03-3.65.16-5.46.12-1.64.02-3.28.15-4.92.15-1.85.01-3.7.17-5.54.15-1.8.03-3.59.17-5.38.03-.43-.18-.73-.47-1.02-1.15-1.13-2.29-2.26-3.26-3.56-.65-.87-.93-1.82-1.05-2.89-.2-1.79-.18-3.59-.1-5.38.11-2.39.15-4.78.4-7.16.09-.88.09-1.76.17-2.65.26-2.72.44-5.44.67-8.16.07-.85.29-1.05.96-1.01.35.02.53.19.57.52.02.18.03.36.03.55,0,.49.01.99.01,1.49,0,3.02.15,6.04.21,9.06.04,1.82.07,3.64.12,5.46,0,.16,0,.32.03.47.06.29.23.47.54.44.33-.02.54-.18.56-.53.02-.39.04-.78.04-1.17.01-.89,0-1.77.03-2.66.08-2.71.11-5.41.2-8.12.05-1.66.07-3.33.12-4.99.02-.68.16-.77.8-.7.39.04.46.27.46.59,0,1.04,0,2.08.02,3.13.09,4.11.18,8.23.18,12.34,0,.52.08,1.04.12,1.55.02.33.17.55.53.55.36,0,.52-.24.54-.55.06-.83.13-1.66.14-2.49.03-2.29-.03-4.59.06-6.88.1-2.47.11-4.94.13-7.42,0-.33-.04-.7.42-.81.55-.12.82.09.83.71.03,1.22-.03,2.45.05,3.67.13,2.19.04,4.38.17,6.56.12,2.03.07,4.06.13,6.09,0,.23,0,.47.05.7.07.28.29.42.58.43.32,0,.47-.2.52-.48.03-.18.02-.36.03-.55.01-1.02,0-2.03.03-3.05.07-2.5.09-5,.19-7.49.08-1.9.07-3.8.12-5.7,0-.16.01-.31.03-.47.02-.14.1-.23.24-.28.48-.18,1.06.14,1.19.63.19.71.16,1.45.24,2.17.18,1.57.23,3.16.37,4.74.21,2.33.36,4.66.49,7,.11,2.13.25,4.26.28,6.86Z"/>
      <path class="cls-2" d="M125.61,62.43c0,4.2-.01,9.57.01,14.93,0,.91-.19,1.7-.89,2.32-.23.2-.24.45-.23.71.04,1.12-.07,2.24.12,3.35.03.18.01.36.02.55.06,3.25.07,6.51.22,9.76.09,1.87.02,3.75.15,5.62.14,2.06.03,4.12.16,6.17.13,1.88.06,3.75.14,5.62.04.88.15,1.76.12,2.65-.05,1.3-.45,2.44-1.44,3.35-1.29,1.18-3.08.87-4.08-.33-.75-.9-1.09-1.93-1.08-3.1,0-3.1.15-6.2.22-9.29.04-1.85,0-3.7.13-5.54.14-2,.03-4.01.16-6.01.13-1.85.02-3.7.15-5.54.14-2,.02-4.01.18-6.01.07-.93-.09-1.48-.88-2.06-.97-.71-1.35-1.87-1.53-3.07-.14-.93-.16-1.87-.15-2.8.01-1.64-.21-3.28-.13-4.92.14-2.6.07-5.21.17-7.81.09-2.26.15-4.53.32-6.78.16-2.2.31-4.41.54-6.6.29-2.82.62-5.64,1.17-8.42.41-2.04.89-4.07,1.83-5.95.32-.63.72-1.21,1.26-1.67.38-.33.81-.56,1.34-.58,1.04-.04,1.75.57,1.82,1.6.02.21,0,.42,0,.63,0,2.76-.04,5.53.03,8.29.17,6.59.08,13.18.14,20.94Z"/>
      <path class="cls-2" d="M73.59,97.05c-12.72.17-23.35-10.49-23.36-23.27,0-12.71,10.3-23.4,23.34-23.41,12.95,0,23.42,10.4,23.4,23.42-.02,13.14-10.84,23.42-23.38,23.26Z"/>
    </g>
  </g>
</svg>