<?xml version="1.0" encoding="UTF-8"?>
<svg xmlns="http://www.w3.org/2000/svg" viewBox="0 0 143.93 143.78">
  <defs>
    <style>
      .cls-1 {
        stroke: #58595b;
        stroke-miterlimit: 10;
        stroke-width: 2px;
      }

      .cls-1, .cls-2 {
        fill: #fff;
      }

      .cls-3 {
        fill: #6d6e71;
      }

      .cls-3, .cls-2 {
        stroke-width: 0px;
      }
    </style>
  </defs>
  <g id="Layer_1" data-name="Layer 1">
    <rect class="cls-1" x="1.13" y="1.23" width="141.73" height="141.73" rx="22.68" ry="22.68"/>
  </g>
  <g id="icon">
    <g>
      <path class="cls-3" d="M102.86,121.29c.69,0,1.41-.2,2.06-.46,3.24-1.3,4.51-3.83,4.51-7.21-.02-11.78-.02-23.57,0-35.35,0-1.18-.23-3.93.81-3.93,3.14,0,12.43.07,13.6-.37,1.83-.69,2.26-1.72.99-3.21-1.38-1.61-2.96-3.07-4.56-4.47-7.25-6.35-14.55-12.64-21.8-18.99-6.95-6.08-13.84-12.22-20.8-18.28-3.19-2.77-8.05-2.86-11.23-.13-6.69,5.75-13.29,11.61-19.94,17.42-6.26,5.48-12.53,10.94-18.77,16.44-2.67,2.35-5.3,4.73-7.9,7.15-.8.75-1.74,1.62-1.26,2.87.47,1.21,1.73,1.4,2.82,1.46,4.41,0,9.17.36,11.96.36,1.13,0,1.17,3.77,1.17,3.77,0,0,.15,23.57-.06,35.35-.07,3.81,3.65,8.02,7.72,7.66,4.27,0,55.1-.05,60.68-.09Z"/>
      <path class="cls-2" d="M94.27,105.4c-.26-4.25-1.08-15.83-1.14-16.61-.05-.67-.35-1.33-.84-1.86-.57-.6-1.33-.87-2.19-1.1-1.96-.52-3.99-.47-5.96-.05-1.7.36-2.96,1.51-3.08,3.01-.06.77-.88,12.36-1.14,16.61-.13,1.84-.26,4.4-.26,4.46.02.71.53,1.16,1.32,1.17.6,0,1.1-.29,1.31-.74.08-.14.13-.31.15-.49.05-.57.07-1.14.1-1.72.02-.36.05-.86.08-1.45.21-2.81.55-7.54.55-7.83,0-.28.12-.4.48-.4,1.15,0,2.31,0,3.46,0,1.15,0,2.31,0,3.46,0,.36,0,.48.12.48.4,0,.29.34,5.02.55,7.83.04.58.06,1.09.08,1.45.03.57.05,1.14.1,1.72.02.18.07.34.15.49.21.45.7.75,1.31.74.79,0,1.3-.46,1.32-1.17,0-.05-.13-2.62-.26-4.46ZM89.17,96.09c-.65,0-1.3,0-1.95,0-.04,0-.07,0-.11,0,0,0,0,0,0,0s0,0,0,0c-.04,0-.07,0-.11,0-.65,0-1.3,0-1.95,0-.4,0-.81,0-1.21,0-.43,0-.47-.06-.44-.45.08-1.4.19-2.8.28-4.2.05-.77.1-1.53.14-2.3.04-.73.44-1.07,1.3-1.09.67-.01,1.34-.03,2.01-.05.67.01,1.34.03,2.01.05.86.02,1.26.36,1.3,1.09.04.77.09,1.54.14,2.3.09,1.4.19,2.8.28,4.2.02.39-.01.44-.44.45-.4,0-.81,0-1.21,0Z"/>
      <g>
        <path class="cls-2" d="M67.2,102.45c0-1.84-.02-3.69,0-5.53.02-1.11-.36-2.06-1.1-2.85-2.28-2.46-4.57-4.91-6.86-7.36-.08-.08-.15-.16-.23-.24-.18-.17-.36-.37-.64-.19-.26.17-.22.42-.14.67.53,1.68.97,3.39,1.6,5.03.93,2.42,1,4.79.15,7.25-1.15,3.32-2.2,6.69-3.32,10.02-.63,1.89-2.89,2.62-4.52,1.49-1.05-.73-1.42-1.84-.98-3.13,1.1-3.23,2.16-6.47,3.37-9.66.57-1.51.57-2.8-.27-4.21-1.26-2.11-2.16-4.39-2.53-6.85-.84-5.62.49-10.66,4.17-15,3.06-3.61,6.97-6.02,11.44-7.51,2.08-.69,3.91-.16,5.39,1.46,1.09,1.2,2.14,2.44,3.21,3.65.85.96,1.48,2.04,1.86,3.28.6,1.97.93,2.97,1.5,4.95.39,1.36,1.59,1.19,2.92,1.43,1.62.3,3.24.62,4.85.97,1.42.31,2.15,1.38,1.91,2.71-.23,1.26-1.4,1.98-2.83,1.71-2.08-.4-3.83-.46-5.9-.91-2.3-.5-4.38-.31-5.55-2.36-.71-1.24-1.39-2.5-2.1-3.74-.55-.96-1.12-1.05-1.89-.29-1.47,1.45-2.93,2.91-4.36,4.39-1.09,1.13-1.18,2.74-.2,3.98,1.24,1.58,2.52,3.13,3.81,4.66,1.71,2.04,2.62,4.39,2.66,7.03.06,3.66.02,7.32,0,10.98,0,1.5-.81,2.54-2.14,2.85-1.36.32-2.78-.52-3.16-1.86-.12-.42-.17-.86-.16-1.3,0-1.84,0-3.69,0-5.53h0Z"/>
        <path class="cls-2" d="M87.09,64.09c0,3.2-2.58,5.79-5.75,5.78-3.12,0-5.73-2.62-5.73-5.74,0-3.21,2.56-5.82,5.73-5.84,3.16-.01,5.75,2.59,5.75,5.8Z"/>
      </g>
    </g>
  </g>
</svg>