<?xml version="1.0" encoding="UTF-8"?>
<svg xmlns="http://www.w3.org/2000/svg" viewBox="0 0 143.93 143.78">
  <defs>
    <style>
      .cls-1 {
        stroke: #58595b;
        stroke-miterlimit: 10;
        stroke-width: 2px;
      }

      .cls-1, .cls-2 {
        fill: #fff;
      }

      .cls-3 {
        fill: #6d6e71;
      }

      .cls-3, .cls-2 {
        stroke-width: 0px;
      }
    </style>
  </defs>
  <g id="Layer_1" data-name="Layer 1">
    <rect class="cls-1" x="1.06" y="1.29" width="141.73" height="141.73" rx="22.68" ry="22.68"/>
  </g>
  <g id="icon">
    <g>
      <path class="cls-3" d="M22.47,88.23c0,11.38,0,22.75,0,34.13q0,1.16,1.19,1.17c12.87,0,25.73,0,38.6,0q1.25,0,1.26-1.21c0-6.17,0-12.33,0-18.5,0-.13,0-.27,0-.4-.03-.67-.11-.77-.81-.78-.61-.01-1.22,0-1.83,0-9.22,0-18.45,0-27.67,0-.13,0-.27,0-.4,0-.62-.03-.66-.05-.66-.71,0-1.89,0-3.77,0-5.66,0-12.2,0-24.4-.01-36.6,0-.71.18-1.12.84-1.5,7.36-4.21,14.68-8.47,22.02-12.71,7.48-4.32,14.96-8.63,22.44-12.94.12-.07,1.61-.59,2.66-3.22s1.05-4,1.05-4l-2.89-4.48s-4.56,2.63-6.84,3.94c-5.78,3.33-11.55,6.66-17.33,10-5.57,3.22-11.13,6.44-16.7,9.65-4.69,2.71-9.38,5.43-14.09,8.11-.61.35-.85.73-.85,1.44.02,11.43.02,22.86.02,34.29Z"/>
      <g>
        <path class="cls-3" d="M117.29,103.17c3.37-2.62,4.58-6.2,4.16-10.38-.05-.49-.86-35.29-1.15-37.63-.7-5.74-6.15-10.55-11.99-10.62-3.83-.05-7.67,0-11.5-.01-3.67,0-7.34-.03-11.01,0-6.16.06-11.36,4.73-12.26,10.87-.27,1.87-1.29,36.14-1.33,37.85-.09,3.97,1.21,7.39,4.35,9.92,0,0,4.15,2.38,11.15,2.38s11.68-.04,18.85-.04,10.73-2.34,10.73-2.34Z"/>
        <g>
          <path class="cls-2" d="M83.56,98.48c2.55-.03,4.66-2.13,4.63-4.6-.03-2.48-2.15-4.53-4.7-4.54-2.68,0-4.8,2.12-4.71,4.71.09,2.53,2.17,4.46,4.79,4.42Z"/>
          <path class="cls-2" d="M110.22,89.34c-2.6.02-4.59,2.04-4.55,4.62.04,2.6,2.03,4.54,4.65,4.52,2.81-.02,4.7-1.93,4.64-4.71-.06-2.55-2.1-4.45-4.74-4.43Z"/>
        </g>
        <path class="cls-2" d="M97.04,48.69s0,0,0,0c1.54,0,3.08,0,4.62,0,1.12,0,1.91.38,1.87,1.67-.04,1.15-.77,1.52-1.78,1.53-3.16,0-6.32,0-9.47,0-1.08,0-2.03-.36-2.07-1.56-.04-1.22.9-1.62,1.98-1.63,1.62-.02,3.24,0,4.86,0Z"/>
        <path class="cls-2" d="M78.31,71.24c.2-1.38.26-2.76.28-4.14.04-2.2,0-4.41.1-6.6.13-2.79,1.6-4.38,4.22-4.39,4.65-.03,9.3-.04,13.95-.04,4.65,0,9.3.01,13.95.04,2.62.01,4.09,1.6,4.22,4.39.11,2.2.06,4.4.1,6.6.02,1.38.08,2.76.28,4.14.45,3.08-1.24,5.07-4.34,5.11-.34,0-.68,0-1.02,0h0c-.26,0-.51,0-.77,0-3.29.02-6.59.01-9.88,0-.85,0-1.69,0-2.54,0-.85,0-1.69,0-2.54,0-3.29,0-6.59.02-9.88,0-.26,0-.51,0-.77,0h0c-.34,0-.68,0-1.02-.01-3.1-.04-4.79-2.03-4.34-5.11Z"/>
      </g>
      <g>
        <path class="cls-3" d="M117.54,123.52h4.01c.45,0,.75-.47.56-.88l-6.75-14.78c-.1-.22-.32-.36-.56-.36h-4.01c-.45,0-.75.47-.56.88l6.75,14.78c.1.22.32.36.56.36Z"/>
        <path class="cls-3" d="M76.19,123.52h-4.01c-.45,0-.75-.47-.56-.88l6.75-14.78c.1-.22.32-.36.56-.36h4.01c.45,0,.75.47.56.88l-6.75,14.78c-.1.22-.32.36-.56.36Z"/>
      </g>
      <g>
        <polygon class="cls-3" points="84.35 108.84 109.38 108.84 110.07 110.67 83.66 110.67 84.35 108.84"/>
        <polygon class="cls-3" points="81.77 114.3 111.96 114.3 112.79 116.13 80.94 116.13 81.77 114.3"/>
        <polygon class="cls-3" points="79.12 119.7 114.61 119.7 115.59 121.53 78.14 121.53 79.12 119.7"/>
      </g>
    </g>
  </g>
</svg>